<?xml version="1.0" encoding="UTF-8" standalone="no"?>
<svg
   width="32"
   height="32"
   version="1.1"
   id="svg2"
   sodipodi:docname="icon.svg"
   inkscape:version="1.3 (0e150ed6c4, 2023-07-21)"
   xmlns:inkscape="http://www.inkscape.org/namespaces/inkscape"
   xmlns:sodipodi="http://sodipodi.sourceforge.net/DTD/sodipodi-0.dtd"
   xmlns="http://www.w3.org/2000/svg"
   xmlns:svg="http://www.w3.org/2000/svg">
  <sodipodi:namedview
     id="namedview2"
     pagecolor="#ffffff"
     bordercolor="#000000"
     borderopacity="0.25"
     inkscape:showpageshadow="2"
     inkscape:pageopacity="0.0"
     inkscape:pagecheckerboard="0"
     inkscape:deskcolor="#d1d1d1"
     inkscape:zoom="6.75"
     inkscape:cx="17.703704"
     inkscape:cy="36.888889"
     inkscape:window-width="1920"
     inkscape:window-height="1048"
     inkscape:window-x="1920"
     inkscape:window-y="32"
     inkscape:window-maximized="1"
     inkscape:current-layer="22-22-material-you" />
  <defs
     id="materia">
    <style
       id="current-color-scheme"
       type="text/css">&#10;   .ColorScheme-Background {color:#181818; } .ColorScheme-ButtonBackground { color:#343434; } .ColorScheme-Highlight { color:#4285f4; } .ColorScheme-Text { color:#dfdfdf; } .ColorScheme-ViewBackground { color:#242424; } .ColorScheme-NegativeText { color:#f44336; } .ColorScheme-PositiveText { color:#4caf50; } .ColorScheme-NeutralText { color:#ff9800; }&#10;  </style>
  </defs>
  <g
     id="22-22-material-you"
     transform="translate(27,5.0000005)"
     style="opacity:1;fill:currentColor"
     class="ColorScheme-Text">
    <rect
       style="opacity:0.001"
       width="22"
       height="22"
       x="5"
       y="5"
       id="rect1" />
    <path
       d="m 15.2,16.8 h 1.6 V 12 h -1.6 m 0,8 h 1.6 V 18.4 H 15.2 M 11.2,8 h 6.4 l 4.8,4.8 v 9.6 c 0,0.88 -0.72,1.6 -1.6,1.6 H 11.2 C 10.32,24 9.6,23.28 9.6,22.4 V 9.6 C 9.6,8.72 10.32,8 11.2,8 Z"
       id="path1-7"
       style="fill:currentColor;stroke-width:0.8" />
  </g>
  <g
     id="material-you"
     class="ColorScheme-Text"
     style="opacity:1;fill:currentColor">
    <rect
       style="opacity:0.001"
       width="32"
       height="32"
       x="0"
       y="0"
       id="rect2" />
    <path
       d="m 14.8,17.2 h 2.4 V 10 h -2.4 m 0,12 h 2.4 V 19.6 H 14.8 M 8.8,3.9999999 h 9.6 L 25.6,11.2 v 14.4 c 0,1.32 -1.08,2.4 -2.4,2.4 H 8.8 C 7.4800001,28 6.4000001,26.92 6.4000001,25.6 V 6.3999999 c 0,-1.32 1.08,-2.4 2.3999999,-2.4 z"
       id="path1"
       style="stroke-width:1.2" />
  </g>
</svg>
