<?xml version="1.0" encoding="iso-8859-1"?>
<!-- Generator: Adobe Illustrator 19.0.0, SVG Export Plug-In . SVG Version: 6.00 Build 0)  -->
<svg version="1.1" id="Layer_1" xmlns="http://www.w3.org/2000/svg" xmlns:xlink="http://www.w3.org/1999/xlink" x="0px" y="0px"
	 viewBox="0 0 300 300" style="enable-background:new 0 0 300 300;" xml:space="preserve">
<defs id="defs3051">
  <style type="text/css" id="current-color-scheme">
    .ColorScheme-Text {
      color:#232629;
    }
    </style>
</defs>
<g>
	<g>
		<g>
			<path style="fill:currentColor;fill-opacity:1;stroke:none" class="ColorScheme-Text" d="M59.717,110.045L53.353,98.45c-6.704,3.681-13.257,7.81-19.482,12.274l7.711,10.746
				C47.376,117.315,53.476,113.47,59.717,110.045z"/>
			<path style="fill:currentColor;fill-opacity:1;stroke:none" class="ColorScheme-Text" d="M99.411,94.105l-3.415-12.779c-7.389,1.975-14.738,4.424-21.841,7.277l4.929,12.274
				C85.699,98.22,92.535,95.943,99.411,94.105z"/>
			<path style="fill:currentColor;fill-opacity:1;stroke:none" class="ColorScheme-Text" d="M230.536,95.09c-6.834-3.415-13.958-6.452-21.186-9.029l-4.44,12.459c6.726,2.396,13.356,5.222,19.714,8.401
				L230.536,95.09z"/>
			<path style="fill:currentColor;fill-opacity:1;stroke:none" class="ColorScheme-Text" d="M285.464,136.504l-9.739,8.943c4.823,5.251,9.373,10.85,13.528,16.632L300,154.368
				C295.538,148.152,290.649,142.14,285.464,136.504z"/>
			<path style="fill:currentColor;fill-opacity:1;stroke:none" class="ColorScheme-Text" d="M243.18,117.654c5.932,3.935,11.694,8.28,17.115,12.909l8.588-10.059c-5.826-4.977-12.016-9.646-18.398-13.874
				L243.18,117.654z"/>
			<path style="fill:currentColor;fill-opacity:1;stroke:none" class="ColorScheme-Text" d="M0,141.823l10.054,8.593c4.629-5.416,9.64-10.605,14.888-15.422l-8.943-9.741C10.358,130.426,4.977,136.003,0,141.823z"
				/>
			<path style="fill:currentColor;fill-opacity:1;stroke:none" class="ColorScheme-Text" d="M106.286,100.191l6.644,0.004l8.061-12.223l25.91,0.181l-11.593,39.963c0,1.166,0.948,2.116,2.114,2.116h10.66
				l22.266-41.295l20.437,0.679c5.817,0,10.524-4.455,10.524-9.951c0.004-5.491-4.711-9.946-10.519-9.946l-20.589,0.688
				l-22.117-41.023l-10.665-0.002c-1.166,0.002-2.114,0.952-2.114,2.118l11.513,39.685l-25.97,0.225l-7.923-11.987l-6.644,0.002
				c-0.884,0-1.598,0.712-1.598,1.594v37.582C104.688,99.479,105.404,100.196,106.286,100.191z"/>
			<path style="fill:currentColor;fill-opacity:1;stroke:none" class="ColorScheme-Text" d="M171.31,150.616c-8.657-1.973-17.503-2.974-26.307-2.974c-55.361,0-102.631,37.757-114.949,91.814
				c-2.361,10.361-3.28,20.82-2.863,31.161h13.237v-0.003c-0.425-9.353,0.379-18.823,2.515-28.201
				c4.329,1.122,23.682,6.492,23.067,12.719c-0.518,5.222-2.198,11.17-0.8,15.481h12.166c1.671-1.217,3.282-1.797,4.858-0.139
				c0.042,0.046,0.097,0.093,0.141,0.139h96.071c-22.612-14.403-25.811-39.848-25.811-39.848c-1.596-0.694,2.969-18.768-4.14-20.939
				c-7.12-2.169-11.608-0.43-21.691-4.929c-10.096-4.499-6.316-10.786-4.658-25.789c0.708-6.402,2.337-12.133,4.413-16.636
				c5.998-1.056,12.159-1.607,18.442-1.607c7.812,0,15.678,0.888,23.373,2.641c27.292,6.216,50.529,22.69,65.43,46.38
				c11.233,17.864,16.705,38.217,16.059,58.848c-0.864,0.628-1.792,1.254-2.762,1.883h15.907
				c1.049-23.743-5.088-47.224-18.01-67.771C228.221,176.164,202.05,157.617,171.31,150.616z"/>
		</g>
	</g>
</g>
</svg>
