<?xml version="1.0" encoding="UTF-8" standalone="no"?>
<svg viewBox="0 0 50 50"
 xmlns="http://www.w3.org/2000/svg" xmlns:xlink="http://www.w3.org/1999/xlink"  version="1.2" baseProfile="tiny">
<title>Qt SVG Document</title>
<desc>Generated with Qt</desc>
<defs>
</defs>
<g fill="none" stroke="black" stroke-width="1" fill-rule="evenodd" stroke-linecap="square" stroke-linejoin="bevel" >

<g fill="#6a58f0" fill-opacity="1" stroke="none" transform="matrix(2.27273,0,0,2.27273,-2.27273,-2498.91)"
font-family="Noto Sans" font-size="10" font-weight="400" font-style="normal" 
>
<circle cx="12" cy="1110.52" r="11"/>
</g>

<g fill="#fafafa" fill-opacity="1" stroke="none" transform="matrix(2.27273,0,0,2.27273,-2.27273,-2498.91)"
font-family="Noto Sans" font-size="10" font-weight="400" font-style="normal" 
>
<path vector-effect="none" fill-rule="nonzero" d="M10,1108.52 C8.892,1108.52 8,1109.41 8,1110.52 L8,1112.52 C8,1113.63 8.892,1114.52 10,1114.52 L12,1114.52 C13.108,1114.52 14,1113.63 14,1112.52 L14,1110.52 C14,1109.41 13.108,1108.52 12,1108.52 L10,1108.52 M10,1109.52 L12,1109.52 C12.554,1109.52 13,1109.97 13,1110.52 L13,1112.52 C13,1113.07 12.554,1113.52 12,1113.52 L10,1113.52 C9.446,1113.52 9,1113.07 9,1112.52 L9,1110.52 C9,1109.97 9.446,1109.52 10,1109.52 "/>
</g>

<g fill="#fafafa" fill-opacity="1" stroke="none" transform="matrix(2.27273,0,0,2.27273,-2.27273,-2498.91)"
font-family="Noto Sans" font-size="10" font-weight="400" font-style="normal" 
opacity="0.35" >
<path vector-effect="none" fill-rule="nonzero" d="M12,1106.52 C10.892,1106.52 10,1107.41 10,1108.52 L11,1108.52 C11,1107.97 11.446,1107.52 12,1107.52 L14,1107.52 C14.554,1107.52 15,1107.97 15,1108.52 L15,1110.52 C15,1111.07 14.554,1111.52 14,1111.52 L14,1112.52 C15.108,1112.52 16,1111.63 16,1110.52 L16,1108.52 C16,1107.41 15.108,1106.52 14,1106.52 L12,1106.52"/>
</g>

<g fill="none" stroke="#000000" stroke-opacity="1" stroke-width="1" stroke-linecap="square" stroke-linejoin="bevel" transform="matrix(1,0,0,1,0,0)"
font-family="Noto Sans" font-size="10" font-weight="400" font-style="normal" 
>
</g>
</g>
</svg>
