<?xml version="1.0" encoding="UTF-8" standalone="no"?>
<svg viewBox="0 0 50 50"
 xmlns="http://www.w3.org/2000/svg" xmlns:xlink="http://www.w3.org/1999/xlink"  version="1.2" baseProfile="tiny">
<title>Qt SVG Document</title>
<desc>Generated with Qt</desc>
<defs>
</defs>
<g fill="none" stroke="black" stroke-width="1" fill-rule="evenodd" stroke-linecap="square" stroke-linejoin="bevel" >

<g fill="#ffffff" fill-opacity="1" stroke="none" transform="matrix(2.27273,0,0,2.27273,-170.455,-2498.91)"
font-family="Noto Sans" font-size="10" font-weight="400" font-style="normal" 
opacity="0.03" >
<circle cx="86" cy="1110.52" r="11"/>
</g>

<g fill="#ffffff" fill-opacity="1" stroke="none" transform="matrix(2.27273,0,0,2.27273,-170.455,-2498.91)"
font-family="Noto Sans" font-size="10" font-weight="400" font-style="normal" 
opacity="0.325" >
<path vector-effect="none" fill-rule="nonzero" d="M84,1108.52 C82.892,1108.52 82,1109.41 82,1110.52 L82,1112.52 C82,1113.63 82.892,1114.52 84,1114.52 L86,1114.52 C87.108,1114.52 88,1113.63 88,1112.52 L88,1110.52 C88,1109.41 87.108,1108.52 86,1108.52 L84,1108.52 M84,1109.52 L86,1109.52 C86.554,1109.52 87,1109.97 87,1110.52 L87,1112.52 C87,1113.07 86.554,1113.52 86,1113.52 L84,1113.52 C83.446,1113.52 83,1113.07 83,1112.52 L83,1110.52 C83,1109.97 83.446,1109.52 84,1109.52 "/>
</g>

<g fill="#ffffff" fill-opacity="1" stroke="none" transform="matrix(2.27273,0,0,2.27273,-170.455,-2498.91)"
font-family="Noto Sans" font-size="10" font-weight="400" font-style="normal" 
opacity="0.175" >
<path vector-effect="none" fill-rule="nonzero" d="M86,1106.52 C84.892,1106.52 84,1107.41 84,1108.52 L85,1108.52 C85,1107.97 85.446,1107.52 86,1107.52 L88,1107.52 C88.554,1107.52 89,1107.97 89,1108.52 L89,1110.52 C89,1111.07 88.554,1111.52 88,1111.52 L88,1112.52 C89.108,1112.52 90,1111.63 90,1110.52 L90,1108.52 C90,1107.41 89.108,1106.52 88,1106.52 L86,1106.52"/>
</g>

<g fill="none" stroke="#000000" stroke-opacity="1" stroke-width="1" stroke-linecap="square" stroke-linejoin="bevel" transform="matrix(1,0,0,1,0,0)"
font-family="Noto Sans" font-size="10" font-weight="400" font-style="normal" 
>
</g>
</g>
</svg>
