<?xml version="1.0" encoding="UTF-8" standalone="no"?>
<svg viewBox="0 0 50 50"
 xmlns="http://www.w3.org/2000/svg" xmlns:xlink="http://www.w3.org/1999/xlink"  version="1.2" baseProfile="tiny">
<title>Qt SVG Document</title>
<desc>Generated with Qt</desc>
<defs>
</defs>
<g fill="none" stroke="black" stroke-width="1" fill-rule="evenodd" stroke-linecap="square" stroke-linejoin="bevel" >

<g fill="#6a58f0" fill-opacity="1" stroke="none" transform="matrix(2.27273,0,0,2.27273,-2.27273,-2498.91)"
font-family="Noto Sans" font-size="10" font-weight="400" font-style="normal" 
>
<circle cx="12" cy="1110.52" r="11"/>
</g>

<g fill="#fafafa" fill-opacity="1" stroke="none" transform="matrix(2.27273,0,0,2.27273,-2.27273,-2498.91)"
font-family="Noto Sans" font-size="10" font-weight="400" font-style="normal" 
>
<path vector-effect="none" fill-rule="nonzero" d="M10,1106.52 C8.892,1106.52 8,1107.41 8,1108.52 L8,1112.52 C8,1113.63 8.89201,1114.52 10,1114.52 L14,1114.52 C15.108,1114.52 16,1113.63 16,1112.52 L16,1108.52 C16,1107.41 15.108,1106.52 14,1106.52 L10,1106.52 M10,1107.52 L14,1107.52 C14.554,1107.52 15,1107.97 15,1108.52 L15,1112.52 C15,1113.07 14.554,1113.52 14,1113.52 L10,1113.52 C9.44603,1113.52 9.00001,1113.07 9.00001,1112.52 L9.00001,1108.52 C9.00001,1107.97 9.44603,1107.52 10,1107.52 "/>
</g>

<g fill="none" stroke="#000000" stroke-opacity="1" stroke-width="1" stroke-linecap="square" stroke-linejoin="bevel" transform="matrix(1,0,0,1,0,0)"
font-family="Noto Sans" font-size="10" font-weight="400" font-style="normal" 
>
</g>
</g>
</svg>
