<?xml version="1.0" encoding="UTF-8" standalone="no"?>
<svg
   sodipodi:docname="panel-background.svg"
   inkscape:version="1.1.2 (0a00cf5339, 2022-02-04)"
   version="1.1"
   id="svg2"
   viewBox="0 0 173 56.000004"
   height="56.000004"
   width="173"
   xmlns:inkscape="http://www.inkscape.org/namespaces/inkscape"
   xmlns:sodipodi="http://sodipodi.sourceforge.net/DTD/sodipodi-0.dtd"
   xmlns:xlink="http://www.w3.org/1999/xlink"
   xmlns="http://www.w3.org/2000/svg"
   xmlns:svg="http://www.w3.org/2000/svg"
   xmlns:rdf="http://www.w3.org/1999/02/22-rdf-syntax-ns#"
   xmlns:cc="http://creativecommons.org/ns#"
   xmlns:dc="http://purl.org/dc/elements/1.1/">
  <defs
     id="defs4">
    <style
       id="current-color-scheme"
       type="text/css">
      .ColorScheme-Text {
        color:#31363b;
        stop-color:#31363b;
      }
      .ColorScheme-Background {
        color:#eff0f1;
        stop-color:#eff0f1;
      }
      .ColorScheme-Highlight {
        color:#3daee9;
        stop-color:#3daee9;
      }
      .ColorScheme-ViewText {
        color:#31363b;
        stop-color:#31363b;
      }
      .ColorScheme-ViewBackground {
        color:#fcfcfc;
        stop-color:#fcfcfc;
      }
      .ColorScheme-ViewHover {
        color:#93cee9;
        stop-color:#93cee9;
      }
      .ColorScheme-ViewFocus{
        color:#3daee9;
        stop-color:#3daee9;
      }
      .ColorScheme-ButtonText {
        color:#31363b;
        stop-color:#31363b;
      }
      .ColorScheme-ButtonBackground {
        color:#eff0f1;
        stop-color:#eff0f1;
      }
      .ColorScheme-ButtonHover {
        color:#93cee9;
        stop-color:#93cee9;
      }
      .ColorScheme-ButtonFocus{
        color:#3daee9;
        stop-color:#3daee9;
      }
      </style>
    <radialGradient
       r="6"
       fy="11.99998"
       fx="77"
       cy="11.99998"
       cx="77"
       gradientTransform="matrix(1.6289431e-5,-4.6666397,4.6666504,1.6289464e-5,3.9989368,381.3309)"
       gradientUnits="userSpaceOnUse"
       id="radialGradient994"
       xlink:href="#linearGradient4270"
       inkscape:collect="always" />
    <linearGradient
       inkscape:collect="always"
       id="linearGradient4270">
      <stop
         style="stop-color:#000000;stop-opacity:0.66663194"
         offset="0"
         id="stop4272" />
      <stop
         style="stop-color:#000000;stop-opacity:0;"
         offset="1"
         id="stop4274" />
    </linearGradient>
    <linearGradient
       gradientTransform="matrix(1.1020538,0,0,1,98.293668,0)"
       y2="-34.999985"
       x2="-904.3623"
       y1="-34.999985"
       x1="-920.69537"
       gradientUnits="userSpaceOnUse"
       id="linearGradient4920"
       xlink:href="#linearGradient4270"
       inkscape:collect="always" />
    <radialGradient
       inkscape:collect="always"
       xlink:href="#linearGradient4270"
       id="radialGradient3062"
       gradientUnits="userSpaceOnUse"
       gradientTransform="matrix(1.6289431e-5,-4.6666397,4.6666504,1.6289464e-5,3.9989368,381.3309)"
       cx="77"
       cy="11.99998"
       fx="77"
       fy="11.99998"
       r="6" />
    <radialGradient
       inkscape:collect="always"
       xlink:href="#linearGradient4270"
       id="radialGradient3070"
       gradientUnits="userSpaceOnUse"
       gradientTransform="matrix(1.6289431e-5,-4.6666397,4.6666504,1.6289464e-5,3.9989368,381.3309)"
       cx="77"
       cy="11.99998"
       fx="77"
       fy="11.99998"
       r="6" />
    <radialGradient
       inkscape:collect="always"
       xlink:href="#linearGradient4270"
       id="radialGradient3078"
       gradientUnits="userSpaceOnUse"
       gradientTransform="matrix(1.6289431e-5,-4.6666397,4.6666504,1.6289464e-5,3.9989368,381.3309)"
       cx="77"
       cy="11.99998"
       fx="77"
       fy="11.99998"
       r="6" />
    <linearGradient
       inkscape:collect="always"
       xlink:href="#linearGradient4270"
       id="linearGradient1062"
       gradientUnits="userSpaceOnUse"
       gradientTransform="matrix(1.1020538,0,0,1,98.293668,0)"
       x1="-920.69537"
       y1="-34.999985"
       x2="-904.3623"
       y2="-34.999985" />
    <linearGradient
       inkscape:collect="always"
       xlink:href="#linearGradient4270"
       id="linearGradient1064"
       gradientUnits="userSpaceOnUse"
       gradientTransform="matrix(1.1020538,0,0,1,98.293668,0)"
       x1="-920.69537"
       y1="-34.999985"
       x2="-904.3623"
       y2="-34.999985" />
    <linearGradient
       inkscape:collect="always"
       xlink:href="#linearGradient4270"
       id="linearGradient1066"
       gradientUnits="userSpaceOnUse"
       gradientTransform="matrix(1.1020538,0,0,1,98.293668,0)"
       x1="-920.69537"
       y1="-34.999985"
       x2="-904.3623"
       y2="-34.999985" />
  </defs>
  <sodipodi:namedview
     inkscape:document-rotation="0"
     fit-margin-bottom="0"
     fit-margin-right="0"
     fit-margin-left="0"
     fit-margin-top="0"
     showguides="true"
     inkscape:window-maximized="1"
     inkscape:window-y="32"
     inkscape:window-x="0"
     inkscape:window-height="1024"
     inkscape:window-width="1920"
     units="px"
     borderlayer="true"
     inkscape:showpageshadow="false"
     showgrid="true"
     inkscape:current-layer="layer1"
     inkscape:document-units="px"
     inkscape:cy="75.153425"
     inkscape:cx="96.222077"
     inkscape:zoom="3.8920382"
     inkscape:pageshadow="2"
     inkscape:pageopacity="0"
     borderopacity="1"
     bordercolor="#cc0000"
     pagecolor="#b0dba0"
     id="base"
     inkscape:guide-bbox="true"
     inkscape:pagecheckerboard="0">
    <inkscape:grid
       originy="-91.999976"
       originx="0"
       empspacing="2"
       id="grid3336"
       type="xygrid" />
    <sodipodi:guide
       position="13,50.99998"
       orientation="1,0"
       id="guide992" />
    <sodipodi:guide
       position="35,51.99998"
       orientation="1,0"
       id="guide994" />
    <sodipodi:guide
       position="-3,25.99998"
       orientation="0,-1"
       id="guide998" />
    <sodipodi:guide
       position="54,47.99998"
       orientation="0,-1"
       id="guide1000" />
  </sodipodi:namedview>
  <metadata
     id="metadata7">
    <rdf:RDF>
      <cc:Work
         rdf:about="">
        <dc:format>image/svg+xml</dc:format>
        <dc:type
           rdf:resource="http://purl.org/dc/dcmitype/StillImage" />
      </cc:Work>
    </rdf:RDF>
  </metadata>
  <g
     transform="translate(0,-904.36218)"
     id="layer1"
     inkscape:groupmode="layer"
     inkscape:label="Layer 1">
    <rect
       y="904.36218"
       x="0"
       height="5"
       width="5"
       id="hint-tile-center"
       style="opacity:1;fill:#ff6600;fill-opacity:1;stroke:none" />
    <g
       transform="matrix(0.375,0,0,2.6666565,21.87499,-1515.261)"
       style="opacity:0.7;fill:#2f343f;fill-opacity:1"
       id="top">
      <rect
         class="ColorScheme-Background"
         transform="matrix(0,-1,-1,0,0,0)"
         style="opacity:1;fill:#2f343f;fill-opacity:1;stroke:none"
         id="rect4152"
         width="6"
         height="32"
         x="-916.36218"
         y="-50.999985" />
    </g>
    <g
       transform="matrix(0.375,0,0,2.6666565,21.87499,-1588.594)"
       style="opacity:0.7;fill:#192124;fill-opacity:1"
       id="bottom">
      <rect
         class="ColorScheme-Background"
         y="-50.999985"
         x="948.36218"
         height="32"
         width="6"
         id="rect4148"
         style="opacity:1;fill:#2f343f;fill-opacity:1;stroke:none"
         transform="rotate(90)" />
    </g>
    <g
       transform="matrix(2.6666669,0,0,0.375,-21.666677,584.72634)"
       style="opacity:0.7;fill:#2f343f;fill-opacity:1"
       id="left">
      <rect
         class="ColorScheme-Background"
         y="916.36218"
         x="-19.000004"
         height="32"
         width="5.9999995"
         id="rect4144"
         style="opacity:1;fill:#2f343f;fill-opacity:1;stroke:none"
         transform="scale(-1,1)" />
    </g>
    <g
       transform="matrix(2.6666669,0,0,0.375,-94.999985,584.72634)"
       style="opacity:0.7;fill:#192124;fill-opacity:1"
       id="right">
      <rect
         class="ColorScheme-Background"
         style="opacity:1;fill:#2f343f;fill-opacity:1;stroke:none"
         id="rect4140"
         width="5.9999995"
         height="32"
         x="50.999985"
         y="916.36218" />
    </g>
    <g
       transform="matrix(0.375,0,0,0.375,21.875002,584.72634)"
       style="opacity:1"
       id="center">
      <rect
         style="opacity:0.7;fill:none;fill-opacity:1;stroke:none"
         id="rect4401"
         width="32"
         height="32"
         x="19.000004"
         y="916.36218" />
      <rect
         class="ColorScheme-Background"
         y="916.36218"
         x="19.000004"
         height="32"
         width="32"
         id="rect4138"
         style="opacity:0.7;fill:#2f343f;fill-opacity:1;stroke:none" />
    </g>
    <rect
       y="912.36218"
       x="33"
       height="1.9999769"
       width="4"
       id="hint-top-margin"
       style="opacity:0.7;fill:#ff00ff;fill-opacity:1;stroke:none" />
    <rect
       style="opacity:0.7;fill:#ff00ff;fill-opacity:1;stroke:none"
       id="hint-bottom-margin"
       width="4"
       height="2.0000231"
       x="33"
       y="954.36218" />
    <rect
       transform="rotate(90)"
       style="opacity:0.7;fill:#ff00ff;fill-opacity:1;stroke:none"
       id="hint-right-margin"
       width="3.9999769"
       height="1.9999847"
       x="932.36218"
       y="-56.999985" />
    <rect
       transform="rotate(90)"
       y="-14.999996"
       x="932.36218"
       height="2.0000019"
       width="4"
       id="hint-left-margin"
       style="opacity:0.7;fill:#ff00ff;fill-opacity:1;stroke:none" />
    <g
       style="opacity:0.7;fill:#0f111a;fill-opacity:1"
       id="topleft"
       transform="matrix(2.6666667,0,0,2.6666565,-21.666667,-1515.2611)">
      <path
         sodipodi:nodetypes="ccccc"
         class="ColorScheme-Background"
         inkscape:connector-curvature="0"
         id="rect4159"
         transform="translate(0,904.36218)"
         d="m 13,12 h 6 V 6 c -1.108109,0 -1.108109,0 0,0 -3,2.98e-5 -6,3.0000412 -6,6 z"
         style="color:#eff0f1;opacity:1;fill:#2f343f;fill-opacity:1;stroke:none" />
    </g>
    <g
       style="opacity:0.7;fill:#192124;fill-opacity:1"
       id="topright"
       transform="matrix(2.6666667,0,0,2.6666565,-95,-1515.2611)">
      <path
         sodipodi:nodetypes="cccc"
         class="ColorScheme-Background"
         inkscape:connector-curvature="0"
         id="rect4177"
         d="m 51,6 v 6 h 6 c -10e-7,-2.9999588 -3.000001,-5.9999702 -6,-6 z"
         style="color:#eff0f1;opacity:1;fill:#2f343f;fill-opacity:1;stroke:none"
         transform="translate(0,904.36218)" />
    </g>
    <g
       style="opacity:0.7;fill:#0f111a;fill-opacity:1"
       id="bottomleft"
       transform="matrix(2.6666667,0,0,2.6666565,-21.666667,-1588.594)">
      <path
         sodipodi:nodetypes="cccc"
         class="ColorScheme-Background"
         id="path5048"
         d="m 19,954.36218 v -6 h -6 c 0,3.00002 2.625,6.00004 6,6 z"
         style="color:#eff0f1;opacity:1;fill:#2f343f;fill-opacity:1;stroke:none"
         inkscape:connector-curvature="0" />
    </g>
    <g
       style="opacity:0.7;fill:#192124;fill-opacity:1"
       id="bottomright"
       transform="matrix(2.6666667,0,0,2.6666565,-95,-1588.594)">
      <path
         sodipodi:nodetypes="cccc"
         class="ColorScheme-Background"
         inkscape:connector-curvature="0"
         style="color:#eff0f1;opacity:1;fill:#2f343f;fill-opacity:1;stroke:none"
         d="m 51,954.36218 v -6 h 6 c -10e-7,3.00002 -3.000001,6.00004 -6,6 z"
         id="rect4177-6" />
    </g>
    <g
       transform="matrix(0.37500035,0,0,1.3333275,136.87498,-303.44862)"
       id="mask-top">
      <rect
         y="-51"
         x="-922.36218"
         height="32.000015"
         width="11.999931"
         id="rect4265"
         style="opacity:0.97;fill:#000000;fill-opacity:1;stroke:none;stroke-width:1.54919"
         transform="matrix(0,-1,-1,0,0,0)" />
    </g>
    <g
       transform="matrix(1.5999977,0,0,1.5999942,107.20003,-546.21192)"
       id="mask-topleft">
      <path
         inkscape:connector-curvature="0"
         id="path4277"
         d="m 23,910.36218 c -5.539984,0 -10,4.46002 -10,10 h 10 z"
         style="opacity:0.97;fill:#000000;fill-opacity:1;stroke-width:2" />
    </g>
    <g
       transform="matrix(2.0000036,0,0,2.0000159,57.999798,-910.37672)"
       id="mask-topright">
      <path
         inkscape:connector-curvature="0"
         id="path4287"
         d="m 49.000013,910.36218 v 7.99999 H 57 c 0,-4.43198 -3.568007,-7.99999 -7.999987,-7.99999 z"
         style="opacity:0.97;fill:#000000;fill-opacity:1;stroke-width:1.6" />
    </g>
    <g
       transform="matrix(0.37500035,0,0,1.600003,136.87498,-572.62032)"
       id="mask-bottom">
      <rect
         transform="rotate(90)"
         style="opacity:0.97;fill:#000000;fill-opacity:1;stroke:none;stroke-width:1.41421"
         id="rect4291"
         width="9.9999723"
         height="32.000015"
         x="944.36224"
         y="-51" />
    </g>
    <g
       transform="matrix(1.3333288,0,0,1.3333268,110.66673,-318.11452)"
       id="mask-bottomleft">
      <path
         inkscape:connector-curvature="0"
         id="path4303"
         d="m 13,942.36218 c 0,6.64797 5.35202,12 12,12 v -12 z"
         style="opacity:0.97;fill:#000000;fill-opacity:1;stroke-width:2.40001" />
    </g>
    <g
       transform="matrix(1.3333336,0,0,1.3333316,95.99999,-318.11912)"
       id="mask-bottomright">
      <path
         inkscape:connector-curvature="0"
         id="path4313"
         d="m 45,942.36218 v 12 c 6.64798,0 12,-5.35203 12,-12 z"
         style="opacity:0.97;fill:#000000;fill-opacity:1;stroke-width:2.40001" />
    </g>
    <g
       transform="matrix(1.3333341,0,0,0.60000604,110.66665,372.93927)"
       id="mask-left">
      <rect
         transform="scale(-1,1)"
         style="opacity:0.97;fill:#000000;fill-opacity:1;stroke:none;stroke-width:1.22475"
         id="rect4317"
         width="11.999996"
         height="20.000069"
         x="-25"
         y="922.36218" />
    </g>
    <g
       transform="matrix(1.6000014,0,0,0.37500479,80.799938,582.72193)"
       id="mask-right">
      <rect
         y="916.36218"
         x="47"
         height="32.000023"
         width="9.9999828"
         id="rect4323"
         style="opacity:0.97;fill:#000000;fill-opacity:1;stroke:none;stroke-width:1.41421" />
    </g>
    <rect
       y="926.36212"
       x="143.99997"
       height="12.000025"
       width="12.000025"
       id="mask-center"
       style="opacity:0.97;fill:#000000;fill-opacity:1;stroke:none;stroke-width:0.375001" />
    <rect
       style="fill:#ff6600;fill-opacity:1;stroke:none;stroke-width:0.999999"
       id="south-hint-tile-center"
       width="5"
       height="5"
       x="44.000004"
       y="972.36206" />
    <g
       transform="matrix(1.1666637,0,0,1.1666637,92.666636,-120.39098)"
       id="south-shadow-topleft">
      <path
         id="path4828"
         style="opacity:0.25;fill:url(#radialGradient994)"
         d="M 32,-6 V 22 H 44 C 44,13.13604 51.136035,6 60,6 V -6 Z"
         transform="matrix(0.85714504,0,0,0.85714504,-55.428665,931.50503)" />
      <path
         id="path1373"
         style="opacity:0.01;fill:#000000"
         d="m 44,71 c -9.418,0 -17,7.582 -17,17 h 1 c 0,-8.86396 7.136035,-16 16,-16 z"
         transform="matrix(0.85714504,0,0,0.85714504,-41.714376,874.9334)" />
    </g>
    <g
       transform="matrix(0.37500095,0,0,1.9999988,80.875001,-848.36118)"
       id="south-top">
      <rect
         class="ColorScheme-Background"
         transform="matrix(0,-1,-1,0,0,0)"
         style="color:#eff0f1;opacity:0.7;fill:#010101;fill-opacity:1;stroke:none;stroke-width:1.1547"
         id="rect4152-3"
         width="8.0000181"
         height="32"
         x="-918.36218"
         y="-50.999985" />
      <rect
         y="-50.999985"
         x="-910.86218"
         height="32"
         width="0.50003201"
         id="rect76"
         style="color:#eff0f1;opacity:0.05;fill:#f5f5f5;fill-opacity:1;stroke:none;stroke-width:0.288684"
         transform="matrix(0,-1,-1,0,0,0)"
         class="ColorScheme-Background" />
    </g>
    <g
       transform="translate(59.00004,61.999951)"
       id="south-topleft">
      <path
         inkscape:connector-curvature="0"
         id="rect4159-6"
         d="m 29,910.36218 c -8.863965,0 -16,7.13604 -16,16 h 16 z"
         style="opacity:0.7;fill:#010101;fill-opacity:1;stroke:none;stroke-width:2.66667"
         sodipodi:nodetypes="cccc" />
      <path
         id="path71"
         style="opacity:0.05;fill:#ffffff;fill-opacity:1;stroke:none;stroke-width:2.66667"
         d="M 60,6 C 51.136035,6 44,13.13604 44,22 h 1 C 45,13.69004 51.690033,7 60,7 Z"
         transform="translate(-31,904.36218)" />
    </g>
    <rect
       style="color:#eff0f1;opacity:0.7;fill:#020202;fill-opacity:1;stroke:none;stroke-width:0.375003;stop-color:#eff0f1"
       id="south-center"
       width="12.000099"
       height="12.000099"
       x="87.999985"
       y="988.36206"
       class="ColorScheme-Background" />
    <rect
       y="972.36218"
       x="92.000046"
       height="6"
       width="3.9999998"
       id="south-hint-top-margin"
       style="fill:#ff00ff;fill-opacity:1;stroke:none;stroke-width:0.999999" />
    <g
       transform="matrix(0.37500333,0,0,1.5555643,80.874926,-437.0982)"
       id="south-shadow-top">
      <rect
         y="-50.999985"
         x="-916.36218"
         height="32"
         width="6"
         id="rect4820"
         style="opacity:1;fill:none;fill-opacity:1;stroke:none"
         transform="matrix(0,-1,-1,0,0,0)" />
      <rect
         y="-50.999844"
         x="-906.07654"
         height="31.999859"
         width="7.7143521"
         id="rect4822"
         style="opacity:0.25;fill:url(#linearGradient1062)"
         transform="matrix(0,-1,-1,0,0,0)" />
      <rect
         transform="matrix(0,-1,-1,0,0,0)"
         style="opacity:1;fill:none;fill-opacity:1;stroke:none"
         id="rect4824"
         width="0.99997741"
         height="32"
         x="-911.36218"
         y="-50.999985" />
      <rect
         y="-50.999844"
         x="-906.07648"
         height="31.999859"
         width="0.64285356"
         id="rect1453"
         style="opacity:0.01;fill:#000000"
         transform="matrix(0,-1,-1,0,0,0)" />
    </g>
    <rect
       style="fill:#ff6600;fill-opacity:1;stroke:none;stroke-width:1.41422"
       id="south-shadow-hint-top-margin"
       width="3.9999998"
       height="12"
       x="92.000046"
       y="960.36212" />
    <rect
       y="1016.3621"
       x="92.000046"
       height="11.999977"
       width="3.9999998"
       id="south-shadow-hint-bottom-margin"
       style="fill:#ff6600;fill-opacity:1;stroke:none;stroke-width:1.41421" />
    <rect
       y="-128.00003"
       x="992.36206"
       height="12"
       width="3.9999769"
       id="south-shadow-hint-right-margin"
       style="fill:#ff6600;fill-opacity:1;stroke:none;stroke-width:1.41422"
       transform="rotate(90)" />
    <rect
       transform="rotate(90)"
       style="fill:#ff00ff;fill-opacity:1;stroke:none;stroke-width:0.999999"
       id="hint-right-margin-7"
       width="3.9999998"
       height="6"
       x="992.36206"
       y="-116.00005" />
    <rect
       style="fill:#ff6600;fill-opacity:1;stroke:none;stroke-width:1.41421"
       id="south-shadow-hint-left-margin"
       width="4.0000229"
       height="12"
       x="992.36206"
       y="-72.000031"
       transform="rotate(90)" />
    <rect
       y="972.36206"
       x="86.000015"
       height="0.2"
       width="3.9999998"
       id="south-hint-top-inset"
       style="fill:#00ff00;fill-opacity:1;stroke:none;stroke-width:0.182574" />
    <rect
       style="fill:#ffcc00;fill-opacity:1;stroke:none;stroke-width:1.41422"
       id="shadow-hint-top-inset"
       width="3.9999998"
       height="12"
       x="86.000015"
       y="960.36206" />
    <rect
       y="1016.3621"
       x="98"
       height="11.999977"
       width="3.9999998"
       id="south-shadow-hint-bottom-inset"
       style="fill:#ffcc00;fill-opacity:1;stroke:none;stroke-width:1.41421" />
    <rect
       y="-128.00003"
       x="986.36206"
       height="12"
       width="3.9999769"
       id="south-shadow-hint-right-inset"
       style="fill:#ffcc00;fill-opacity:1;stroke:none;stroke-width:1.41422"
       transform="rotate(90)" />
    <rect
       style="fill:#ffcc00;fill-opacity:1;stroke:none;stroke-width:1.41421"
       id="south-shadow-hint-left-inset"
       width="3.9999998"
       height="12"
       x="998.36206"
       y="-72"
       transform="rotate(90)" />
    <g
       transform="rotate(90,33.500078,992.86216)"
       id="south-topright">
      <path
         inkscape:connector-curvature="0"
         id="path1945"
         d="m 29,910.36218 c -8.863965,0 -16,7.13604 -16,16 h 16 z"
         style="opacity:0.7;fill:#010101;fill-opacity:1;stroke:none;stroke-width:2.66667"
         sodipodi:nodetypes="cccc" />
      <path
         id="path1947"
         style="opacity:0.05;fill:#ffffff;fill-opacity:1;stroke:none;stroke-width:2.66667"
         d="M 60,6 C 51.136035,6 44,13.13604 44,22 h 1 C 45,13.69004 51.690033,7 60,7 Z"
         transform="translate(-31,904.36218)" />
    </g>
    <rect
       transform="rotate(90)"
       style="fill:#00ff00;fill-opacity:1;stroke:none;stroke-width:0.182574"
       id="south-hint-right-inset"
       width="3.9999998"
       height="0.2"
       x="986.36206"
       y="-116.00002" />
    <g
       transform="rotate(180,64.500034,963.36217)"
       id="south-bottomright">
      <path
         inkscape:connector-curvature="0"
         id="path1951"
         d="m 29,910.36218 c -8.863965,0 -16,7.13604 -16,16 h 16 z"
         style="opacity:0.7;fill:#030303;fill-opacity:1;stroke:none;stroke-width:2.66667"
         sodipodi:nodetypes="cccc" />
      <path
         id="path1953"
         style="opacity:0.05;fill:#ffffff;fill-opacity:1;stroke:none;stroke-width:2.66667"
         d="M 60,6 C 51.136035,6 44,13.13604 44,22 h 1 C 45,13.69004 51.690033,7 60,7 Z"
         transform="translate(-31,904.36218)" />
    </g>
    <rect
       style="fill:#00ff00;fill-opacity:1;stroke:none;stroke-width:0.182575"
       id="south-hint-bottom-inset"
       width="3.9999998"
       height="0.2"
       x="98"
       y="1016.162" />
    <g
       transform="rotate(-90,95.500008,933.86213)"
       id="south-bottomleft">
      <path
         inkscape:connector-curvature="0"
         id="path1957"
         d="m 29,910.36218 c -8.863965,0 -16,7.13604 -16,16 h 16 z"
         style="opacity:0.7;fill:#000000;fill-opacity:1;stroke:none;stroke-width:2.66667"
         sodipodi:nodetypes="cccc" />
      <path
         id="path1959"
         style="opacity:0.05;fill:#ffffff;fill-opacity:1;stroke:none;stroke-width:2.66667"
         d="M 60,6 C 51.136035,6 44,13.13604 44,22 h 1 C 45,13.69004 51.690033,7 60,7 Z"
         transform="translate(-31,904.36218)" />
    </g>
    <rect
       transform="rotate(90)"
       y="-72.200005"
       x="998.36206"
       height="0.2"
       width="3.9999998"
       id="south-hint-left-inset"
       style="fill:#00ff00;fill-opacity:1;stroke:none;stroke-width:0.182574" />
    <g
       transform="matrix(0,0.37500095,-1.9999988,0,1936.7233,981.23719)"
       id="south-right">
      <rect
         class="ColorScheme-Background"
         transform="matrix(0,-1,-1,0,0,0)"
         style="color:#eff0f1;opacity:0.7;fill:#010101;fill-opacity:1;stroke:none;stroke-width:1.1547"
         id="rect2203"
         width="8.0000181"
         height="32"
         x="-918.36218"
         y="-50.999985" />
      <rect
         y="-50.999985"
         x="-910.86218"
         height="32"
         width="0.50003201"
         id="rect2205"
         style="color:#eff0f1;opacity:0.05;fill:#f5f5f5;fill-opacity:1;stroke:none;stroke-width:0.288684"
         transform="matrix(0,-1,-1,0,0,0)"
         class="ColorScheme-Background" />
    </g>
    <g
       transform="matrix(-0.37500095,0,0,-1.9999988,107.12511,2837.0854)"
       id="south-bottom">
      <rect
         class="ColorScheme-Background"
         transform="matrix(0,-1,-1,0,0,0)"
         style="color:#eff0f1;opacity:0.7;fill:#040404;fill-opacity:1;stroke:none;stroke-width:1.1547"
         id="rect2209"
         width="8.0000181"
         height="32"
         x="-918.36218"
         y="-50.999985" />
      <rect
         y="-50.999985"
         x="-910.86218"
         height="32"
         width="0.50003201"
         id="rect2211"
         style="color:#eff0f1;opacity:0.05;fill:#f5f5f5;fill-opacity:1;stroke:none;stroke-width:0.288684"
         transform="matrix(0,-1,-1,0,0,0)"
         class="ColorScheme-Background" />
    </g>
    <rect
       style="fill:#ff00ff;fill-opacity:1;stroke:none;stroke-width:0.999999"
       id="south-hint-bottom-margin"
       width="3.9999998"
       height="6"
       x="92.000046"
       y="1010.3621" />
    <g
       transform="matrix(0,-0.37500095,1.9999988,0,-1748.7232,1007.4872)"
       id="south-left">
      <rect
         class="ColorScheme-Background"
         transform="matrix(0,-1,-1,0,0,0)"
         style="color:#eff0f1;opacity:0.7;fill:#020202;fill-opacity:1;stroke:none;stroke-width:1.1547"
         id="rect2215"
         width="8.0000181"
         height="32"
         x="-918.36218"
         y="-50.999985" />
      <rect
         y="-50.999985"
         x="-910.86218"
         height="32"
         width="0.50003201"
         id="rect2217"
         style="color:#eff0f1;opacity:0.05;fill:#f5f5f5;fill-opacity:1;stroke:none;stroke-width:0.288684"
         transform="matrix(0,-1,-1,0,0,0)"
         class="ColorScheme-Background" />
    </g>
    <rect
       transform="rotate(90)"
       y="-78.000038"
       x="992.36206"
       height="6"
       width="3.9999998"
       id="south-hint-left-margin"
       style="fill:#ff00ff;fill-opacity:1;stroke:none;stroke-width:0.999999" />
    <g
       transform="matrix(0,1.1666637,-1.1666637,0,1208.7531,993.0286)"
       id="south-shadow-topright">
      <path
         id="path3056"
         style="opacity:0.25;fill:url(#radialGradient3062)"
         d="M 32,-6 V 22 H 44 C 44,13.13604 51.136035,6 60,6 V -6 Z"
         transform="matrix(0.85714504,0,0,0.85714504,-55.428665,931.50503)" />
      <path
         id="path3058"
         style="opacity:0.01;fill:#000000"
         d="m 44,71 c -9.418,0 -17,7.582 -17,17 h 1 c 0,-8.86396 7.136035,-16 16,-16 z"
         transform="matrix(0.85714504,0,0,0.85714504,-41.714376,874.9334)" />
    </g>
    <g
       transform="matrix(-1.1666637,0,0,-1.1666637,95.333546,2109.1152)"
       id="south-shadow-bottomright">
      <path
         id="path3064"
         style="opacity:0.25;fill:url(#radialGradient3070)"
         d="M 32,-6 V 22 H 44 C 44,13.13604 51.136035,6 60,6 V -6 Z"
         transform="matrix(0.85714504,0,0,0.85714504,-55.428665,931.50503)" />
      <path
         id="path3066"
         style="opacity:0.01;fill:#000000"
         d="m 44,71 c -9.418,0 -17,7.582 -17,17 h 1 c 0,-8.86396 7.136035,-16 16,-16 z"
         transform="matrix(0.85714504,0,0,0.85714504,-41.714376,874.9334)" />
    </g>
    <g
       transform="matrix(0,-1.1666637,1.1666637,0,-1020.7532,995.69555)"
       id="south-shadow-bottomleft">
      <path
         id="path3072"
         style="opacity:0.25;fill:url(#radialGradient3078)"
         d="M 32,-6 V 22 H 44 C 44,13.13604 51.136035,6 60,6 V -6 Z"
         transform="matrix(0.85714504,0,0,0.85714504,-55.428665,931.50503)" />
      <path
         id="path3074"
         style="opacity:0.01;fill:#000000"
         d="m 44,71 c -9.418,0 -17,7.582 -17,17 h 1 c 0,-8.86396 7.136035,-16 16,-16 z"
         transform="matrix(0.85714504,0,0,0.85714504,-41.714376,874.9334)" />
    </g>
    <g
       transform="matrix(0,0.37500333,-1.5555643,0,1525.4603,981.23704)"
       id="south-shadow-right">
      <rect
         y="-50.999985"
         x="-916.36218"
         height="32"
         width="6"
         id="rect3320"
         style="opacity:1;fill:none;fill-opacity:1;stroke:none"
         transform="matrix(0,-1,-1,0,0,0)" />
      <rect
         y="-50.999844"
         x="-906.07654"
         height="31.999859"
         width="7.7143521"
         id="rect3322"
         style="opacity:0.25;fill:url(#linearGradient1064)"
         transform="matrix(0,-1,-1,0,0,0)" />
      <rect
         transform="matrix(0,-1,-1,0,0,0)"
         style="opacity:1;fill:none;fill-opacity:1;stroke:none"
         id="rect3324"
         width="0.99997741"
         height="32"
         x="-911.36218"
         y="-50.999985" />
      <rect
         y="-50.999844"
         x="-906.07648"
         height="31.999859"
         width="0.64285356"
         id="rect3326"
         style="opacity:0.01;fill:#000000"
         transform="matrix(0,-1,-1,0,0,0)" />
    </g>
    <g
       transform="matrix(0,-0.37500333,1.5555643,0,-1337.4601,1007.4873)"
       id="south-shadow-left">
      <rect
         y="-50.999985"
         x="-916.36218"
         height="32"
         width="6"
         id="rect3332"
         style="opacity:1;fill:none;fill-opacity:1;stroke:none"
         transform="matrix(0,-1,-1,0,0,0)" />
      <rect
         y="-50.999844"
         x="-906.07654"
         height="31.999859"
         width="7.7143521"
         id="rect3334"
         style="opacity:0.25;fill:url(#linearGradient1066)"
         transform="matrix(0,-1,-1,0,0,0)" />
      <rect
         transform="matrix(0,-1,-1,0,0,0)"
         style="opacity:1;fill:none;fill-opacity:1;stroke:none"
         id="rect3336"
         width="0.99997741"
         height="32"
         x="-911.36218"
         y="-50.999985" />
      <rect
         y="-50.999844"
         x="-906.07648"
         height="31.999859"
         width="0.64285356"
         id="rect3338"
         style="opacity:0.01;fill:#000000"
         transform="matrix(0,-1,-1,0,0,0)" />
    </g>
    <g
       transform="matrix(-0.37500333,0,0,-1.5555643,107.12526,2425.8223)"
       id="south-shadow-bottom">
      <rect
         y="-50.999985"
         x="-916.36218"
         height="32"
         width="6"
         id="rect3344"
         style="opacity:1;fill:none;fill-opacity:1;stroke:none"
         transform="matrix(0,-1,-1,0,0,0)" />
      <rect
         y="-50.999844"
         x="-906.07654"
         height="31.999859"
         width="7.7143521"
         id="rect3346"
         style="opacity:0.25;fill:url(#linearGradient4920)"
         transform="matrix(0,-1,-1,0,0,0)" />
      <rect
         transform="matrix(0,-1,-1,0,0,0)"
         style="opacity:1;fill:none;fill-opacity:1;stroke:none"
         id="rect3348"
         width="0.99997741"
         height="32"
         x="-911.36218"
         y="-50.999985" />
      <rect
         y="-50.999844"
         x="-906.07648"
         height="31.999859"
         width="0.64285356"
         id="rect3350"
         style="opacity:0.01;fill:#000000"
         transform="matrix(0,-1,-1,0,0,0)" />
    </g>
  </g>
</svg>
