<?xml version="1.0" encoding="UTF-8" standalone="no"?>
<svg viewBox="0 0 50 50"
 xmlns="http://www.w3.org/2000/svg" xmlns:xlink="http://www.w3.org/1999/xlink"  version="1.2" baseProfile="tiny">
<title>Qt SVG Document</title>
<desc>Generated with Qt</desc>
<defs>
</defs>
<g fill="none" stroke="black" stroke-width="1" fill-rule="evenodd" stroke-linecap="square" stroke-linejoin="bevel" >

<g fill="#cf54d0" fill-opacity="1" stroke="none" transform="matrix(2.27273,0,0,2.27273,-2.27273,-2498.91)"
font-family="Noto Sans" font-size="10" font-weight="400" font-style="normal" 
>
<circle cx="12" cy="1110.52" r="11"/>
</g>

<g fill="#fafafa" fill-opacity="1" stroke="none" transform="matrix(2.27273,0,0,2.27273,-2.27273,-2498.91)"
font-family="Noto Sans" font-size="10" font-weight="400" font-style="normal" 
>
<path vector-effect="none" fill-rule="nonzero" d="M8.46475,1106.48 C8.337,1106.48 8.20925,1106.53 8.11136,1106.63 C7.91558,1106.83 7.91558,1107.14 8.11136,1107.34 L11.293,1110.52 L8.11136,1113.7 C7.91558,1113.9 7.91558,1114.21 8.11136,1114.41 C8.30714,1114.6 8.62254,1114.6 8.8184,1114.41 L12,1111.23 L15.1816,1114.41 C15.3774,1114.6 15.6927,1114.6 15.8886,1114.41 C16.0844,1114.21 16.0844,1113.9 15.8886,1113.7 L12.707,1110.52 L15.8886,1107.34 C16.0844,1107.14 16.0844,1106.83 15.8886,1106.63 C15.6929,1106.44 15.3775,1106.44 15.1816,1106.63 L12,1109.81 L8.8184,1106.63 C8.72051,1106.53 8.59276,1106.48 8.46501,1106.48 L8.46475,1106.48"/>
</g>

<g fill="none" stroke="#000000" stroke-opacity="1" stroke-width="1" stroke-linecap="square" stroke-linejoin="bevel" transform="matrix(1,0,0,1,0,0)"
font-family="Noto Sans" font-size="10" font-weight="400" font-style="normal" 
>
</g>
</g>
</svg>
