<?xml version="1.0" encoding="UTF-8" standalone="no"?>
<svg viewBox="0 0 50 50"
 xmlns="http://www.w3.org/2000/svg" xmlns:xlink="http://www.w3.org/1999/xlink"  version="1.2" baseProfile="tiny">
<title>Qt SVG Document</title>
<desc>Generated with Qt</desc>
<defs>
</defs>
<g fill="none" stroke="black" stroke-width="1" fill-rule="evenodd" stroke-linecap="square" stroke-linejoin="bevel" >

<g fill="#ffffff" fill-opacity="1" stroke="none" transform="matrix(2.27273,0,0,2.27273,-170.455,-2496.64)"
font-family="Noto Sans" font-size="10" font-weight="400" font-style="normal" 
opacity="0.03" >
<circle cx="86" cy="1109.52" r="11"/>
</g>

<g fill="#ffffff" fill-opacity="1" stroke="none" transform="matrix(2.27273,0,0,2.27273,-170.455,-2496.64)"
font-family="Noto Sans" font-size="10" font-weight="400" font-style="normal" 
opacity="0.325" >
<path vector-effect="none" fill-rule="nonzero" d="M84,1105.52 C82.892,1105.52 82,1106.41 82,1107.52 L82,1111.52 C82,1112.63 82.892,1113.52 84,1113.52 L88,1113.52 C89.108,1113.52 90,1112.63 90,1111.52 L90,1107.52 C90,1106.41 89.108,1105.52 88,1105.52 L84,1105.52 M84,1106.52 L88,1106.52 C88.554,1106.52 89,1106.97 89,1107.52 L89,1111.52 C89,1112.07 88.554,1112.52 88,1112.52 L84,1112.52 C83.446,1112.52 83,1112.07 83,1111.52 L83,1107.52 C83,1106.97 83.446,1106.52 84,1106.52 "/>
</g>

<g fill="none" stroke="#000000" stroke-opacity="1" stroke-width="1" stroke-linecap="square" stroke-linejoin="bevel" transform="matrix(1,0,0,1,0,0)"
font-family="Noto Sans" font-size="10" font-weight="400" font-style="normal" 
>
</g>
</g>
</svg>
