<?xml version="1.0" encoding="UTF-8" standalone="no"?>
<svg viewBox="0 0 50 50"
 xmlns="http://www.w3.org/2000/svg" xmlns:xlink="http://www.w3.org/1999/xlink"  version="1.2" baseProfile="tiny">
<title>Qt SVG Document</title>
<desc>Generated with Qt</desc>
<defs>
</defs>
<g fill="none" stroke="black" stroke-width="1" fill-rule="evenodd" stroke-linecap="square" stroke-linejoin="bevel" >

<g fill="#ffffff" fill-opacity="1" stroke="none" transform="matrix(2.27273,0,0,2.27273,79.5455,-2496.64)"
font-family="Noto Sans" font-size="10" font-weight="400" font-style="normal" 
opacity="0.06" >
<circle cx="-24" cy="1109.52" r="11"/>
</g>

<g fill="#ffffff" fill-opacity="1" stroke="none" transform="matrix(2.27273,0,0,2.27273,79.5455,-2496.64)"
font-family="Noto Sans" font-size="10" font-weight="400" font-style="normal" 
opacity="0.65" >
<path vector-effect="none" fill-rule="nonzero" d="M-26,1105.52 C-27.108,1105.52 -28,1106.41 -28,1107.52 L-28,1111.52 C-28,1112.63 -27.108,1113.52 -26,1113.52 L-22,1113.52 C-20.892,1113.52 -20,1112.63 -20,1111.52 L-20,1107.52 C-20,1106.41 -20.892,1105.52 -22,1105.52 L-26,1105.52 M-26,1106.52 L-22,1106.52 C-21.446,1106.52 -21,1106.97 -21,1107.52 L-21,1111.52 C-21,1112.07 -21.446,1112.52 -22,1112.52 L-26,1112.52 C-26.554,1112.52 -27,1112.07 -27,1111.52 L-27,1107.52 C-27,1106.97 -26.554,1106.52 -26,1106.52 "/>
</g>

<g fill="none" stroke="#000000" stroke-opacity="1" stroke-width="1" stroke-linecap="square" stroke-linejoin="bevel" transform="matrix(1,0,0,1,0,0)"
font-family="Noto Sans" font-size="10" font-weight="400" font-style="normal" 
>
</g>
</g>
</svg>
