<?xml version="1.0" encoding="UTF-8" standalone="no"?>
<svg viewBox="0 0 50 50"
 xmlns="http://www.w3.org/2000/svg" xmlns:xlink="http://www.w3.org/1999/xlink"  version="1.2" baseProfile="tiny">
<title>Qt SVG Document</title>
<desc>Generated with Qt</desc>
<defs>
</defs>
<g fill="none" stroke="black" stroke-width="1" fill-rule="evenodd" stroke-linecap="square" stroke-linejoin="bevel" >

<g fill="#6a58f0" fill-opacity="1" stroke="none" transform="matrix(2.27273,0,0,2.27273,-93.1818,-2498.91)"
font-family="Noto Sans" font-size="10" font-weight="400" font-style="normal" 
>
<circle cx="52" cy="1110.52" r="11"/>
</g>

<g fill="#000000" fill-opacity="1" stroke="none" transform="matrix(2.27273,0,0,2.27273,-93.1818,-2498.91)"
font-family="Noto Sans" font-size="10" font-weight="400" font-style="normal" 
opacity="0.15" >
<circle cx="52" cy="1110.52" r="11"/>
</g>

<g fill="#fafafa" fill-opacity="1" stroke="none" transform="matrix(2.27273,0,0,2.27273,-93.1818,-2498.91)"
font-family="Noto Sans" font-size="10" font-weight="400" font-style="normal" 
>
<path vector-effect="none" fill-rule="evenodd" d="M48,1111.02 C48,1110.74 48.2149,1110.52 48.48,1110.52 L55.52,1110.52 C55.7851,1110.52 56,1110.74 56,1111.02 C56,1111.3 55.7851,1111.52 55.52,1111.52 L48.48,1111.52 C48.2149,1111.52 48,1111.3 48,1111.02 "/>
</g>

<g fill="none" stroke="#000000" stroke-opacity="1" stroke-width="1" stroke-linecap="square" stroke-linejoin="bevel" transform="matrix(1,0,0,1,0,0)"
font-family="Noto Sans" font-size="10" font-weight="400" font-style="normal" 
>
</g>
</g>
</svg>
