<?xml version="1.0" encoding="UTF-8" standalone="no"?>
<svg
   width="32"
   height="32"
   version="1.1"
   id="svg16"
   sodipodi:docname="dropbox.svg"
   inkscape:version="1.2.1 (9c6d41e410, 2022-07-14)"
   xmlns:inkscape="http://www.inkscape.org/namespaces/inkscape"
   xmlns:sodipodi="http://sodipodi.sourceforge.net/DTD/sodipodi-0.dtd"
   xmlns="http://www.w3.org/2000/svg"
   xmlns:svg="http://www.w3.org/2000/svg"
   xmlns:rdf="http://www.w3.org/1999/02/22-rdf-syntax-ns#"
   xmlns:cc="http://creativecommons.org/ns#"
   xmlns:dc="http://purl.org/dc/elements/1.1/">
  <metadata
     id="metadata22">
    <rdf:RDF>
      <cc:Work
         rdf:about="">
        <dc:format>image/svg+xml</dc:format>
        <dc:type
           rdf:resource="http://purl.org/dc/dcmitype/StillImage" />
      </cc:Work>
    </rdf:RDF>
  </metadata>
  <defs
     id="defs20">
    <linearGradient
       id="oomox"
       x1="131.53468"
       x2="131.53468"
       y1="146.39674"
       y2="160.8511"
       gradientTransform="scale(1.0377491,0.96362406)"
       gradientUnits="userSpaceOnUse">
      <stop
         offset="0%"
         style="stop-color:#303b3d; stop-opacity:1"
         id="stop18" />
      <stop
         offset="100%"
         style="stop-color:#bc985d; stop-opacity:1"
         id="stop20" />
    </linearGradient>
  </defs>
  <sodipodi:namedview
     pagecolor="#cccccc"
     bordercolor="#000000"
     borderopacity="1"
     objecttolerance="10"
     gridtolerance="10"
     guidetolerance="10"
     inkscape:pageopacity="0"
     inkscape:pageshadow="2"
     inkscape:window-width="1920"
     inkscape:window-height="1008"
     id="namedview18"
     showgrid="false"
     inkscape:zoom="13.876971"
     inkscape:cx="12.754945"
     inkscape:cy="19.492727"
     inkscape:window-x="0"
     inkscape:window-y="0"
     inkscape:window-maximized="1"
     inkscape:current-layer="svg16"
     inkscape:document-rotation="0"
     inkscape:showpageshadow="2"
     inkscape:pagecheckerboard="0"
     inkscape:deskcolor="#808080"
     inkscape:lockguides="true">
    <inkscape:grid
       type="xygrid"
       id="grid876"
       originx="0"
       originy="0" />
  </sodipodi:namedview>
  <g
     id="dropbox">
    <rect
       style="opacity:0.00100002"
       width="32"
       height="32"
       x="0"
       y="0"
       id="rect9" />
    <path
       d="M 10.428568,4.0000005 3.0000041,8.6153831 8.5714401,12.307696 16.000004,7.6923135 Z m 5.571436,3.692313 7.428563,4.6153825 5.571437,-3.6923129 -7.428563,-4.6153826 z m 7.428563,4.6153825 -7.428563,4.615383 5.571437,3.692313 7.428563,-4.6154 z m -7.428563,4.615383 -7.4285639,-4.615383 -5.571436,3.692296 7.4285639,4.6154 z m 0,2.217548 -5.53878,3.670671 -1.8897839,-1.175483 v 0.266836 1.662252 L 16.014512,28 23.428567,23.579326 v -1.658652 -0.284859 l -1.889783,1.175483 z"
       style="fill:#d1d5e9;fill-opacity:1;stroke-width:1.72819"
       class="ColorScheme-Text"
       id="path58" />
  </g>
  <g
     id="22-22-dropbox">
    <rect
       style="opacity:0.00100002"
       width="22"
       height="22"
       x="32"
       y="10"
       id="rect2" />
    <path
       d="M 39.142855,13 34,16.076922 l 3.857148,2.46154 5.142851,-3.076919 z m 3.857144,2.461543 5.142854,3.076919 L 52,16.076922 46.857147,13 Z m 5.142854,3.076919 -5.142854,3.076921 3.857148,2.461546 L 52,20.999992 Z M 42.999999,21.615383 37.857148,18.538462 34,20.999992 l 5.142855,3.076937 z m 0,1.478364 -3.834534,2.447117 -1.308317,-0.783655 v 0.177888 1.108172 L 43.010045,29 48.142853,26.052876 v -1.105752 -0.189915 l -1.308311,0.783655 z"
       style="fill:#d1d5e9;fill-opacity:1;stroke-width:1.17399;enable-background:new"
       class="ColorScheme-Text"
       id="path58-7" />
  </g>
</svg>
