<?xml version="1.0" encoding="UTF-8" standalone="no"?>
<svg
   width="450"
   height="450"
   version="1.1"
   viewBox="0 0 119.06 119.06"
   id="svg8"
   sodipodi:docname="logo.svg"
   inkscape:version="1.1.2 (0a00cf5339, 2022-02-04)"
   xmlns:inkscape="http://www.inkscape.org/namespaces/inkscape"
   xmlns:sodipodi="http://sodipodi.sourceforge.net/DTD/sodipodi-0.dtd"
   xmlns="http://www.w3.org/2000/svg"
   xmlns:svg="http://www.w3.org/2000/svg"
   xmlns:rdf="http://www.w3.org/1999/02/22-rdf-syntax-ns#"
   xmlns:cc="http://creativecommons.org/ns#"
   xmlns:dc="http://purl.org/dc/elements/1.1/">
  <metadata
     id="metadata14">
    <rdf:RDF>
      <cc:Work
         rdf:about="">
        <dc:format>image/svg+xml</dc:format>
        <dc:type
           rdf:resource="http://purl.org/dc/dcmitype/StillImage" />
      </cc:Work>
    </rdf:RDF>
  </metadata>
  <defs
     id="defs12" />
  <sodipodi:namedview
     inkscape:document-rotation="0"
     pagecolor="#868686"
     bordercolor="#666666"
     borderopacity="1"
     objecttolerance="10"
     gridtolerance="10"
     guidetolerance="10"
     inkscape:pageopacity="0"
     inkscape:pageshadow="2"
     inkscape:window-width="1920"
     inkscape:window-height="1029"
     id="namedview10"
     showgrid="true"
     inkscape:snap-bbox="true"
     inkscape:bbox-nodes="true"
     inkscape:snap-bbox-edge-midpoints="true"
     inkscape:snap-nodes="false"
     showguides="true"
     inkscape:guide-bbox="true"
     inkscape:zoom="0.90509668"
     inkscape:cx="16.572815"
     inkscape:cy="414.87281"
     inkscape:window-x="0"
     inkscape:window-y="0"
     inkscape:window-maximized="1"
     inkscape:current-layer="svg8"
     inkscape:pagecheckerboard="0">
    <inkscape:grid
       type="xygrid"
       id="grid839" />
    <sodipodi:guide
       position="59.53,62.175778"
       orientation="1,0"
       id="guide841" />
  </sodipodi:namedview>
  <g
     id="g852"
     transform="matrix(0.53095284,0,0,0.53095284,-74.270197,-5.9017107)">
    <path
       id="path928"
       style="fill:none;fill-rule:evenodd;stroke:#eceff4;stroke-width:2.49311;stroke-opacity:1"
       inkscape:transform-center-x="0.00014400062"
       inkscape:transform-center-y="-2.7542621"
       d="m 268.95486,124.55589 -33.90867,5.5e-4 -10.47888,-32.248901 27.43237,-19.93146 27.43302,19.93058 -5.23892,16.124611 -2.61946,8.06231"
       sodipodi:nodetypes="ccccccc" />
    <path
       id="path846"
       style="fill:none;fill-rule:evenodd;stroke:#eceff4;stroke-width:2.49309;stroke-opacity:1"
       inkscape:transform-center-x="0.00010693412"
       inkscape:transform-center-y="-2.0361005"
       d="m 241.72008,86.546188 10.13975,-7.367199 20.27997,14.73376 -7.74579,23.840381 -25.06713,4e-4 -7.74655,-23.840132"
       sodipodi:nodetypes="cccccc" />
  </g>
  <path
     d="m 27.38155,66.636779 h 6.724347 v 1.054772 l -5.41158,8.006674 h 5.543429 v 1.164358 h -6.988045 v -1.054771 l 5.411579,-8.006674 h -5.27973 z"
     id="path1318"
     style="font-size:12.8329px;line-height:1.25;font-family:Couture;-inkscape-font-specification:Couture;fill:#eceff4;stroke-width:0.32082" />
  <path
     d="m 38.789435,73.006503 q -1.278371,0 -1.771375,0.349308 -0.493004,0.349308 -0.493004,1.191755 0,0.671218 0.366887,1.06847 0.372619,0.390402 1.008938,0.390402 0.877089,0 1.404489,-0.73971 0.533132,-0.746559 0.533132,-1.979408 v -0.280817 z m 2.103866,-0.520536 v 4.376616 h -1.054799 v -1.164358 q -0.361154,0.698616 -0.900019,1.034224 -0.538865,0.32876 -1.318499,0.32876 -0.986009,0 -1.570734,-0.657519 -0.578993,-0.664369 -0.578993,-1.773935 0,-1.294492 0.722308,-1.952011 0.728041,-0.65752 2.166925,-0.65752 h 1.479012 v -0.123285 q 0,-0.869845 -0.481539,-1.342437 -0.475806,-0.479442 -1.341429,-0.479442 -0.550331,0 -1.071997,0.157531 -0.521668,0.157531 -1.003207,0.472592 v -1.164358 q 0.578994,-0.267117 1.123591,-0.397251 0.544597,-0.136984 1.060532,-0.136984 1.393024,0 2.080935,0.862995 0.687913,0.862996 0.687913,2.616382 z"
     id="path1320"
     style="font-size:12.8329px;line-height:1.25;font-family:Couture;-inkscape-font-specification:Couture;fill:#eceff4;stroke-width:0.32082" />
  <path
     d="m 46.316346,66.205282 v 1.047922 h -1.008939 q -0.567528,0 -0.791099,0.273966 -0.217839,0.273968 -0.217839,0.986281 v 0.678067 h 1.73698 v 0.979431 h -1.73698 v 6.691634 h -1.060532 v -6.691634 h -1.008939 v -0.979431 h 1.008939 v -0.534235 q 0,-1.280794 0.498737,-1.862972 0.498736,-0.589029 1.582199,-0.589029 z"
     id="path1322"
     style="font-size:12.8329px;line-height:1.25;font-family:Couture;-inkscape-font-specification:Couture;fill:#eceff4;stroke-width:0.32082" />
  <path
     d="m 47.199167,69.191518 h 1.054799 v 7.671065 h -1.054799 z m 0,-2.986236 h 1.054799 v 1.595856 h -1.054799 z"
     id="path1324"
     style="font-size:12.8329px;line-height:1.25;font-family:Couture;-inkscape-font-specification:Couture;fill:#eceff4;stroke-width:0.32082" />
  <path
     d="m 54.18148,70.369574 q -0.17771,-0.123284 -0.389816,-0.178077 -0.206374,-0.06165 -0.458609,-0.06165 -0.894286,0 -1.375825,0.698616 -0.475806,0.691765 -0.475806,1.993106 v 4.041008 h -1.060532 v -7.671065 h 1.060532 v 1.191754 q 0.332491,-0.698614 0.865623,-1.034223 0.533133,-0.342459 1.295569,-0.342459 0.10892,0 0.240769,0.02055 0.131851,0.0137 0.292363,0.04794 z"
     id="path1326"
     style="font-size:12.8329px;line-height:1.25;font-family:Couture;-inkscape-font-specification:Couture;fill:#eceff4;stroke-width:0.32082" />
  <path
     d="m 57.517856,70.07506 q -0.848425,0 -1.341429,0.794504 -0.493004,0.787653 -0.493004,2.164336 0,1.376682 0.487271,2.171186 0.493005,0.787654 1.347162,0.787654 0.842694,0 1.335697,-0.794503 0.493005,-0.794504 0.493005,-2.164337 0,-1.362984 -0.493005,-2.157487 Q 58.36055,70.07506 57.517856,70.07506 Z m 0,-1.06847 q 1.375826,0 2.161193,1.06847 0.785367,1.06847 0.785367,2.95884 0,1.883521 -0.785367,2.95884 -0.785367,1.068469 -2.161193,1.068469 -1.381557,0 -2.166924,-1.068469 -0.779635,-1.075319 -0.779635,-2.95884 0,-1.89037 0.779635,-2.95884 0.785367,-1.06847 2.166924,-1.06847 z"
     id="path1328"
     style="font-size:12.8329px;line-height:1.25;font-family:Couture;-inkscape-font-specification:Couture;fill:#eceff4;stroke-width:0.32082" />
  <path
     d="m 65.990649,66.636779 h 1.559268 l 3.794985,8.554609 v -8.554609 h 1.123591 v 10.225804 h -1.559269 l -3.794985,-8.554607 v 8.554607 h -1.12359 z"
     id="path1330"
     style="font-size:12.8329px;line-height:1.25;font-family:Couture;-inkscape-font-specification:Couture;fill:#eceff4;stroke-width:0.32082" />
  <path
     d="m 77.215089,70.07506 q -0.848426,0 -1.34143,0.794504 -0.493004,0.787653 -0.493004,2.164336 0,1.376682 0.487271,2.171186 0.493005,0.787654 1.347163,0.787654 0.842693,0 1.335697,-0.794503 0.493004,-0.794504 0.493004,-2.164337 0,-1.362984 -0.493004,-2.157487 -0.493004,-0.801353 -1.335697,-0.801353 z m 0,-1.06847 q 1.375825,0 2.161192,1.06847 0.785367,1.06847 0.785367,2.95884 0,1.883521 -0.785367,2.95884 -0.785367,1.068469 -2.161192,1.068469 -1.381558,0 -2.166925,-1.068469 -0.779635,-1.075319 -0.779635,-2.95884 0,-1.89037 0.779635,-2.95884 0.785367,-1.06847 2.166925,-1.06847 z"
     id="path1332"
     style="font-size:12.8329px;line-height:1.25;font-family:Couture;-inkscape-font-specification:Couture;fill:#eceff4;stroke-width:0.32082" />
  <path
     d="m 85.630554,70.369574 q -0.177711,-0.123284 -0.389818,-0.178077 -0.206373,-0.06165 -0.458608,-0.06165 -0.894286,0 -1.375825,0.698616 -0.475807,0.691765 -0.475807,1.993106 v 4.041008 h -1.060531 v -7.671065 h 1.060531 v 1.191754 q 0.332492,-0.698614 0.865624,-1.034223 0.533132,-0.342459 1.295569,-0.342459 0.10892,0 0.240769,0.02055 0.131851,0.0137 0.292364,0.04794 z"
     id="path1334"
     style="font-size:12.8329px;line-height:1.25;font-family:Couture;-inkscape-font-specification:Couture;fill:#eceff4;stroke-width:0.32082" />
  <path
     d="M 90.755501,70.355876 V 66.205282 H 91.8103 v 10.657301 h -1.054799 v -1.15066 q -0.332491,0.684918 -0.842692,1.020526 -0.50447,0.32876 -1.215313,0.32876 -1.163719,0 -1.897492,-1.109564 -0.728042,-1.109565 -0.728042,-2.917745 0,-1.80818 0.728042,-2.917744 0.733773,-1.109566 1.897492,-1.109566 0.710843,0 1.215313,0.33561 0.510201,0.32876 0.842692,1.013676 z M 87.161158,73.0339 q 0,1.39038 0.475806,2.184884 0.481538,0.787654 1.318499,0.787654 0.83696,0 1.3185,-0.787654 0.481538,-0.794504 0.481538,-2.184884 0,-1.390381 -0.481538,-2.178034 -0.48154,-0.794504 -1.3185,-0.794504 -0.836961,0 -1.318499,0.794504 -0.475806,0.787653 -0.475806,2.178034 z"
     id="path1336"
     style="font-size:12.8329px;line-height:1.25;font-family:Couture;-inkscape-font-specification:Couture;fill:#eceff4;stroke-width:0.32082" />
</svg>
