<?xml version="1.0" encoding="UTF-8" standalone="no"?>
<svg
   sodipodi:docname="kdeconnect.svg"
   height="31.999973"
   width="32.000015"
   inkscape:version="1.2.1 (9c6d41e410, 2022-07-14)"
   version="1.1"
   id="svg"
   viewBox="0 0 32.000012 31.999973"
   xmlns:inkscape="http://www.inkscape.org/namespaces/inkscape"
   xmlns:sodipodi="http://sodipodi.sourceforge.net/DTD/sodipodi-0.dtd"
   xmlns="http://www.w3.org/2000/svg"
   xmlns:svg="http://www.w3.org/2000/svg"
   xmlns:rdf="http://www.w3.org/1999/02/22-rdf-syntax-ns#"
   xmlns:cc="http://creativecommons.org/ns#"
   xmlns:dc="http://purl.org/dc/elements/1.1/">
  <g
     id="22-22-kdeconnect"
     transform="translate(3.9624743,38.981212)">
    <rect
       style="fill:#000000;fill-opacity:0;stroke:none"
       id="rect3841"
       width="22"
       height="22"
       x="-4.9206541e-08"
       y="-1.4697265e-07" />
    <path
       class="fil0"
       d="M 7.6677614,3 H 15.384805 C 16.282136,3 17,3.602511 17,4.271967 V 17.728033 C 17,18.464435 16.282136,19 15.384805,19 H 7.6677614 C 6.7704314,19 6,18.464435 6,17.728033 V 4.271967 C 6,3.602511 6.7704314,3 7.6677614,3 Z m 2.5125266,14.393305 h 2.602265 c 0.448663,0 0.607447,0.267783 0.607447,0.602511 0,0.267782 -0.158784,0.535565 -0.607447,0.535565 h -2.602265 c -0.4486644,0 -0.607288,-0.267783 -0.607288,-0.535565 0,-0.334728 0.1586236,-0.602511 0.607288,-0.602511 z M 10.449489,3.669456 h 2.063869 c 0.269195,0 0.348642,0.133891 0.348642,0.267783 0,0.200836 -0.07945,0.334728 -0.348642,0.334728 h -2.063869 c -0.179467,0 -0.258489,-0.1338919 -0.258489,-0.334728 0,-0.133892 0.07902,-0.267783 0.258489,-0.267783 z M 7.677,5.0000001 h 7.699 c 0.358943,0 0.624,0.331937 0.624,0.666667 V 16.2 C 16,16.534729 15.734949,17 15.376,17 H 7.677 C 7.228334,17 7,16.534729 7,16.2 V 5.6666671 C 7,5.331938 7.2283381,5.0000001 7.677,5.0000001 Z"
       id="path6-3"
       style="fill:#eff0f1;fill-opacity:1;fill-rule:evenodd;stroke-width:0.0775053;image-rendering:optimizeQuality;shape-rendering:geometricPrecision;text-rendering:geometricPrecision"
       sodipodi:nodetypes="ssssssssssssssssssssssssssssssss" />
    <path
       style="color:#d3dae3;fill:#eff0f1;fill-opacity:1;fill-rule:evenodd;stroke-width:0.436968;image-rendering:optimizeQuality;shape-rendering:geometricPrecision;text-rendering:geometricPrecision"
       d="M 11.978461,7.518788 10.66023,7.7482816 v 4.5369534 l 1.311404,-0.168922 -0.007,-2.044953 1.547046,2.263353 1.519765,-0.2184 L 13.283027,9.773614 15.037528,7.8080029 13.499023,7.5247563 11.964793,9.490374 Z M 9.2062602,8.6773362 c -0.012687,8.212e-4 -0.024589,0.0065 -0.034168,0.01618 L 8.7195914,9.1507994 c -0.019673,0.01976 -0.022947,0.05061 -0.00754,0.074225 l 0.5464088,0.8386326 c -0.1030817,0.182792 -0.1809661,0.383215 -0.2313806,0.592926 l -0.9433988,0.231201 c -0.026145,0.0065 -0.046144,0.03006 -0.046144,0.05723 v 0.297747 0.297739 c 0,0.02715 0.019956,0.05081 0.046144,0.05724 l 0.9434137,0.231194 c 0.050401,0.209707 0.1282944,0.41013 0.2313775,0.592927 l -0.5464153,0.838618 c -0.015271,0.02366 -0.011979,0.05449 0.00754,0.07422 l 0.452503,0.457285 c 0.019045,0.01934 0.048706,0.02085 0.071676,0.0068 l 0.8563323,-0.524676 c 0.168005,0.09784 0.430806,0.17649 0.622407,0.228643 l 0.20064,0.968297 c 0.0059,0.02794 0.02783,0.04774 0.05552,0.04774 h 0.337232 0.337247 c 0.02776,0 0.04988,-0.01974 0.05553,-0.04774 l 0.200633,-0.968297 c 0.191608,-0.05222 0.454405,-0.130847 0.622408,-0.228648 l 0.856337,0.52468 c 0.02304,0.01397 0.05254,0.01242 0.07161,-0.0068 l 0.452508,-0.457286 c 0.01968,-0.01974 0.02297,-0.05057 0.0077,-0.07422 l -0.455061,-0.698712 -0.05637,0.008 -0.319313,-0.46752 c -0.326125,0.683143 -1.015828,1.118486 -1.773288,1.119305 -1.086398,0 -1.9670981,-0.88003 -1.9670981,-1.965608 5.89e-4,-0.746119 0.4237512,-1.427554 1.0926321,-1.75916 V 9.0678859 c -0.124588,0.041517 -0.247099,0.088409 -0.341403,0.14333 L 9.2436986,8.6865698 c -0.011511,-0.00703 -0.024863,-0.010395 -0.037588,-0.00923 z"
       class="ColorScheme-Text"
       id="path10-6" />
  </g>
  <defs
     id="defs81">
    <style
       type="text/css"
       id="current-color-scheme" />
    <style
       id="current-color-scheme-9"
       type="text/css" />
  </defs>
  <metadata
     id="metadata34">
    <rdf:RDF>
      <cc:Work
         rdf:about="">
        <dc:format>image/svg+xml</dc:format>
        <dc:type
           rdf:resource="http://purl.org/dc/dcmitype/StillImage" />
      </cc:Work>
    </rdf:RDF>
  </metadata>
  <sodipodi:namedview
     inkscape:document-rotation="0"
     fit-margin-bottom="0"
     fit-margin-right="0"
     fit-margin-left="0"
     fit-margin-top="0"
     inkscape:snap-bbox-midpoints="true"
     inkscape:snap-bbox="true"
     inkscape:guide-bbox="true"
     showguides="false"
     borderlayer="false"
     inkscape:current-layer="svg"
     inkscape:window-maximized="1"
     inkscape:window-y="0"
     inkscape:window-x="0"
     inkscape:cy="31.466253"
     inkscape:cx="24.66035"
     inkscape:zoom="5.656854"
     showgrid="false"
     id="namedview32"
     inkscape:window-height="1002"
     inkscape:window-width="1920"
     inkscape:pageshadow="2"
     inkscape:pageopacity="0.11372549"
     guidetolerance="10"
     gridtolerance="10"
     objecttolerance="10"
     borderopacity="1"
     bordercolor="#000000"
     pagecolor="#ffffff"
     inkscape:lockguides="true"
     inkscape:pagecheckerboard="0"
     inkscape:showpageshadow="false"
     inkscape:deskcolor="#d1d1d1">
    <inkscape:grid
       type="xygrid"
       id="grid866" />
  </sodipodi:namedview>
  <g
     id="kdeconnect"
     transform="translate(7.5624752,73.281212)"
     style="fill:#eff0f1;fill-opacity:1">
    <rect
       width="32.000015"
       height="31.999973"
       rx="0"
       ry="0"
       x="-7.5624752"
       y="-73.281212"
       id="rect3860"
       style="opacity:0.01;fill:#eff0f1;fill-opacity:1;stroke:none" />
    <path
       class="fil0"
       d="M 2.8633602,-69.281212 H 14.08815 c 1.30521,0 2.349375,0.903766 2.349375,1.90795 v 20.1841 c 0,1.104603 -1.044165,1.90795 -2.349375,1.90795 H 2.8633602 c -1.3052077,0 -2.4258354,-0.803347 -2.4258354,-1.90795 v -20.1841 c 0,-1.004184 1.1206277,-1.90795 2.4258354,-1.90795 z m 3.654583,21.589958 h 3.7851098 c 0.652605,0 1.174685,0.401674 1.174685,0.903766 0,0.401673 -0.52208,0.803347 -1.174685,0.803347 H 6.5179432 c -0.6526027,0 -1.1746858,-0.401674 -1.1746858,-0.803347 0,-0.502092 0.5220831,-0.903766 1.1746858,-0.903766 z M 6.9095053,-68.277028 H 9.911498 c 0.391555,0 0.652602,0.200837 0.652602,0.401674 0,0.301255 -0.261047,0.502092 -0.652602,0.502092 H 6.9095053 c -0.261041,0 -0.5220821,-0.200837 -0.5220821,-0.502092 0,-0.200837 0.2610411,-0.401674 0.5220821,-0.401674 z m -4.1786569,1.995816 H 14.220804 c 0.5221,0 1.216721,0.497906 1.216721,1 v 15.8 c 0,0.502093 -0.694623,1.2 -1.216727,1.2 H 2.7308484 c -0.6526041,0 -1.2933236,-0.697907 -1.2933236,-1.2 v -15.8 c 0,-0.502093 0.6407252,-1 1.2933236,-1 z"
       id="path6"
       style="fill:#eff0f1;fill-opacity:1;fill-rule:evenodd;stroke-width:0.114483;image-rendering:optimizeQuality;shape-rendering:geometricPrecision;text-rendering:geometricPrecision"
       sodipodi:nodetypes="ssssssssssssssssssssssssssssssss" />
    <path
       style="color:#d3dae3;fill:#eff0f1;fill-opacity:1;fill-rule:evenodd;stroke-width:0.749082;image-rendering:optimizeQuality;shape-rendering:geometricPrecision;text-rendering:geometricPrecision"
       d="m 9.1934782,-63.281212 -2.2598143,0.393411 v 7.777643 l 2.2481037,-0.289576 -0.011784,-3.505643 2.6520504,3.880042 2.605217,-0.374399 -2.99745,-4.016058 3.007703,-3.369621 -2.63742,-0.485577 -2.6301004,3.369648 z m -4.752321,1.986089 c -0.02174,10e-4 -0.042155,0.01138 -0.058581,0.0277 l -0.7757085,0.783901 c -0.033728,0.0338 -0.039333,0.08668 -0.013009,0.127257 l 0.9367073,1.437635 c -0.1767095,0.313365 -0.310219,0.656954 -0.3966434,1.01645 l -1.6172706,0.396346 c -0.044808,0.01117 -0.07912,0.05155 -0.07912,0.09808 v 0.510416 0.510421 c 0,0.04653 0.034209,0.08696 0.07912,0.09811 l 1.6172693,0.396337 c 0.08639,0.359499 0.219931,0.70309 0.3966434,1.016442 l -0.936706,1.437637 c -0.026178,0.04055 -0.02053,0.09343 0.013009,0.127242 l 0.7757144,0.783902 c 0.032653,0.03314 0.083497,0.03576 0.1228701,0.0118 l 1.467994,-0.899449 c 0.2879978,0.167653 0.7385074,0.302539 1.0669682,0.391945 l 0.3439544,1.659939 c 0.010064,0.04793 0.047688,0.0818 0.095085,0.0818 h 0.5781203 0.5781267 c 0.047553,0 0.085549,-0.03385 0.095101,-0.0818 l 0.3439483,-1.659929 c 0.3284631,-0.08939 0.7789669,-0.224302 1.0669719,-0.391954 l 1.467997,0.899441 c 0.03955,0.02395 0.09014,0.02137 0.122843,-0.0118 l 0.775713,-0.783901 c 0.03369,-0.03381 0.03943,-0.08667 0.0131,-0.127241 l -0.7801,-1.197781 -0.09651,0.01431 -0.547394,-0.801461 c -0.559078,1.171098 -1.7414085,1.917407 -3.0398998,1.91881 -1.8623829,0 -3.3721441,-1.50863 -3.3721441,-3.369618 0.00132,-1.279061 0.7267744,-2.447237 1.8734085,-3.015702 v -0.735582 c -0.2137455,0.07112 -0.4237695,0.151559 -0.5854367,0.24572 l -1.4679162,-0.89942 c -0.019799,-0.012 -0.042625,-0.01792 -0.064454,-0.01588 z"
       class="ColorScheme-Text"
       id="path10" />
  </g>
</svg>
