<?xml version="1.0" encoding="UTF-8" standalone="no"?>
<svg
   width="128"
   height="128"
   version="1"
   id="svg70"
   sodipodi:docname="actionbutton.svg"
   inkscape:version="1.1 (c4e8f9ed74, 2021-05-24)"
   xmlns:inkscape="http://www.inkscape.org/namespaces/inkscape"
   xmlns:sodipodi="http://sodipodi.sourceforge.net/DTD/sodipodi-0.dtd"
   xmlns="http://www.w3.org/2000/svg"
   xmlns:svg="http://www.w3.org/2000/svg">
  <defs
     id="defs74" />
  <sodipodi:namedview
     id="namedview72"
     pagecolor="#ffffff"
     bordercolor="#666666"
     borderopacity="1.0"
     inkscape:pageshadow="2"
     inkscape:pageopacity="0.0"
     inkscape:pagecheckerboard="0"
     showgrid="false"
     inkscape:zoom="4.375"
     inkscape:cx="64"
     inkscape:cy="120.34286"
     inkscape:window-width="1366"
     inkscape:window-height="712"
     inkscape:window-x="0"
     inkscape:window-y="32"
     inkscape:window-maximized="1"
     inkscape:current-layer="svg70" />
  <g
     id="normal"
     transform="matrix(1.6 0 0 1.6 67.344 3.056)">
    <rect
       x="-42.09"
       y="-1.91"
       width="20"
       height="20"
       opacity=".001"
       id="rect2" />
    <circle
       transform="matrix(1.0156 0 0 1.0156 .40985 -.035)"
       cx="-32"
       cy="8"
       r="8"
       fill="#000000"
       opacity=".5"
       id="circle4" />
  </g>
  <g
     id="22-22-normal"
     transform="matrix(1.1 0 0 1.1 86.299 7.101)">
    <rect
       x="-42.09"
       y="-1.91"
       width="20"
       height="20"
       opacity=".001"
       id="rect7" />
    <path
       transform="matrix(1.0227 0 0 1.0227 .63712 -.091818)"
       d="m-24 8a8 8 0 0 1-8 8 8 8 0 0 1-8-8 8 8 0 0 1 8-8 8 8 0 0 1 8 8z"
       fill="#000000"
       opacity=".5"
       id="path9" />
  </g>
  <g
     id="pressed"
     transform="matrix(1.6,0,0,1.6,67.344,99.056)">
    <rect
       x="-42.09"
       y="-1.91"
       width="20"
       height="20"
       opacity="0.00100002"
       id="rect12" />
    <circle
       transform="matrix(1.0156,0,0,1.0156,0.40985,-0.035)"
       cx="-32"
       cy="8"
       r="8"
       fill="#4285f4"
       id="circle14"
       style="fill:#8fbcbb;fill-opacity:1" />
  </g>
  <g
     id="22-22-pressed"
     transform="matrix(1.1,0,0,1.1,86.299,103.1)">
    <rect
       x="-42.09"
       y="-1.91"
       width="20"
       height="20"
       opacity="0.00100002"
       id="rect17" />
    <path
       transform="matrix(1.0227,0,0,1.0227,0.63712,-0.091818)"
       d="m -24,8 a 8,8 0 0 1 -8,8 8,8 0 0 1 -8,-8 8,8 0 0 1 8,-8 8,8 0 0 1 8,8 z"
       fill="#4285f4"
       id="path19"
       style="fill:#8fbcbb;fill-opacity:1" />
  </g>
  <g
     id="hover"
     transform="translate(-11,-2)">
    <rect
       x="11"
       y="34"
       width="32"
       height="32"
       opacity=".001"
       id="rect22" />
    <path
       d="M 27,37 A 13,13 0 0 0 14,50 13,13 0 0 0 14.021484,50.580078 13,13 0 0 1 27,38 13,13 0 0 1 39.978516,50.419922 13,13 0 0 0 40,50 13,13 0 0 0 27,37 Z"
       fill="#ffffff"
       opacity=".001"
       id="path24" />
    <circle
       cx="27"
       cy="50"
       r="13"
       fill="#000000"
       opacity=".65"
       id="circle26" />
  </g>
  <g
     id="focus"
     transform="translate(-11,-7)">
    <rect
       x="11"
       y="71"
       width="32"
       height="32"
       opacity=".001"
       id="rect29" />
    <path
       d="M 27,74 A 13,13 0 0 0 14,87 13,13 0 0 0 14.021484,87.580078 13,13 0 0 1 27,75 13,13 0 0 1 39.978516,87.419922 13,13 0 0 0 40,87 13,13 0 0 0 27,74 Z"
       fill="#ffffff"
       opacity=".001"
       id="path31" />
    <circle
       cx="27"
       cy="87"
       r="13"
       fill="#000000"
       opacity=".35"
       id="circle33" />
  </g>
  <g
     id="22-22-hover"
     transform="translate(-17 -8)">
    <rect
       x="57"
       y="45"
       width="22"
       height="22"
       opacity=".001"
       id="rect36" />
    <path
       d="m68 47a9 9 0 0 0-9 9 9 9 0 0 0 0.0098 0.28711 9 9 0 0 1 8.9902-8.7871 9 9 0 0 1 8.9902 8.7129 9 9 0 0 0 0.009766-0.21289 9 9 0 0 0-9-9z"
       fill="#ffffff"
       opacity=".001"
       id="path38" />
    <circle
       cx="68"
       cy="56"
       r="9"
       fill="#000000"
       opacity=".65"
       id="circle40" />
  </g>
  <g
     id="22-22-focus"
     transform="translate(-17 -13)">
    <rect
       x="57"
       y="82"
       width="22"
       height="22"
       opacity=".001"
       id="rect43" />
    <path
       d="m68 84a9 9 0 0 0-9 9 9 9 0 0 0 0.0098 0.28711 9 9 0 0 1 8.9902-8.7871 9 9 0 0 1 8.9902 8.7129 9 9 0 0 0 0.009766-0.21289 9 9 0 0 0-9-9z"
       fill="#ffffff"
       opacity=".001"
       id="path45" />
    <circle
       cx="68"
       cy="93"
       r="9"
       fill="#000000"
       opacity=".35"
       id="circle47" />
  </g>
  <g
     id="16-16-normal">
    <rect
       x="68"
       y="8"
       width="16"
       height="16"
       opacity=".001"
       stroke-width=".8"
       id="rect50" />
    <path
       d="m83 16a7 7 0 0 1-7 7 7 7 0 0 1-7-7 7 7 0 0 1 7-7 7 7 0 0 1 7 7z"
       fill="#000000"
       opacity=".5"
       stroke-width=".875"
       id="path52" />
  </g>
  <g
     id="16-16-hover"
     transform="translate(0,32)">
    <rect
       x="68"
       y="8"
       width="16"
       height="16"
       opacity=".001"
       stroke-width=".8"
       id="rect55" />
    <path
       d="m83 16a7 7 0 0 1-7 7 7 7 0 0 1-7-7 7 7 0 0 1 7-7 7 7 0 0 1 7 7z"
       fill="#000000"
       opacity=".65"
       stroke-width=".875"
       id="path57" />
  </g>
  <g
     id="16-16-focus"
     transform="translate(0,64)">
    <rect
       x="68"
       y="8"
       width="16"
       height="16"
       opacity=".001"
       stroke-width=".8"
       id="rect60" />
    <path
       d="m83 16a7 7 0 0 1-7 7 7 7 0 0 1-7-7 7 7 0 0 1 7-7 7 7 0 0 1 7 7z"
       fill="#000000"
       opacity=".35"
       stroke-width=".875"
       id="path62" />
  </g>
  <g
     id="16-16-pressed"
     transform="translate(0,96)">
    <rect
       x="68"
       y="8"
       width="16"
       height="16"
       opacity="0.00100002"
       stroke-width="0.8"
       id="rect65" />
    <path
       d="m 83,16 a 7,7 0 0 1 -7,7 7,7 0 0 1 -7,-7 7,7 0 0 1 7,-7 7,7 0 0 1 7,7 z"
       fill="#4285f4"
       stroke-width="0.875"
       id="path67"
       style="fill:#8fbcbb;fill-opacity:1" />
  </g>
</svg>
