<?xml version="1.0" encoding="UTF-8" standalone="no"?>
<svg
   width="32"
   height="32"
   version="1.1"
   id="svg12"
   sodipodi:docname="device.svg"
   inkscape:version="1.1.2 (0a00cf5339, 2022-02-04)"
   xmlns:inkscape="http://www.inkscape.org/namespaces/inkscape"
   xmlns:sodipodi="http://sodipodi.sourceforge.net/DTD/sodipodi-0.dtd"
   xmlns="http://www.w3.org/2000/svg"
   xmlns:svg="http://www.w3.org/2000/svg"
   xmlns:rdf="http://www.w3.org/1999/02/22-rdf-syntax-ns#"
   xmlns:cc="http://creativecommons.org/ns#"
   xmlns:dc="http://purl.org/dc/elements/1.1/">
  <g
     id="device-notifier"
     transform="translate(32,9.999999)">
    <rect
       style="opacity:0.00100002"
       width="32"
       height="32"
       x="-32"
       y="-9.999999"
       id="rect7" />
    <path
       d="m -16,18.000001 c 3.85,0 7,-2.955789 7,-6.568421 V 0.821054 c 0,-1.45879997 -1,-1.82105315 -2,-1.821053 v 0 -3.7368421 c 0,-0.7073685 -0.74615,-1.2631579 -1.499999,-1.2631579 h -6.999925 c -0.753852,0 -1.52698,0.5563012 -1.500076,1.2631579 v 3.7368421 -1.5e-7 c -1,0 -2,0.98736855 -2,1.82105315 V 11.43158 c 0,3.612632 3.150001,6.568421 7,6.568421 z m -3,-22 h 6 v 3 h -6 z m -3,5 h 12 l 0.085,10.431579 c 0.022643,2.778855 -3.123461,5.568421 -6.085,5.568421 -2.961539,0 -6,-2.789474 -6,-5.568421 z"
       id="path2"
       style="fill:#eff0f1;fill-opacity:1;stroke-width:0.2608"
       sodipodi:nodetypes="sssccssssccssscccccccsssc" />
    <rect
       x="-18"
       y="-2.999999"
       width="4"
       height="0.99999988"
       id="rect4"
       style="fill:#eff0f1;fill-opacity:1;stroke-width:0.252632" />
    <rect
       x="-18"
       y="13.000001"
       width="4"
       height="2"
       id="rect6"
       style="fill:#eff0f1;fill-opacity:1;stroke-width:0.36515" />
    <path
       style="color:#d3dae3;fill:#eff0f1;fill-opacity:1;fill-rule:evenodd;stroke-width:0.530408;image-rendering:optimizeQuality;shape-rendering:geometricPrecision;text-rendering:geometricPrecision"
       d="m -15.41809,2.597829 -1.599518,0.278674 v 5.509201 l 1.591231,-0.205119 -0.0083,-2.483183 1.877148,2.748384 1.843997,-0.265201 -2.12163,-2.844731 2.128881,-2.386833 -1.866786,-0.343945 -1.86161,2.386842 z m -3.363739,1.406821 c -0.01539,9.97e-4 -0.02984,0.008 -0.04146,0.01965 l -0.549054,0.555274 c -0.02387,0.024 -0.02784,0.06145 -0.0092,0.09014 l 0.663011,1.018342 c -0.125077,0.221964 -0.219576,0.465339 -0.280748,0.719988 L -20.144,6.688789 c -0.03172,0.0078 -0.056,0.0365 -0.056,0.06944 v 0.361548 0.361548 c 0,0.03292 0.02421,0.06163 0.056,0.06945 l 1.144719,0.280739 c 0.06115,0.254652 0.155669,0.498029 0.280748,0.719991 l -0.66301,1.018337 c -0.01853,0.02868 -0.01453,0.06613 0.0092,0.09013 l 0.549058,0.555273 c 0.02311,0.02341 0.0591,0.02528 0.08697,0.0083 l 1.03906,-0.637107 c 0.203848,0.118758 0.522723,0.214305 0.755211,0.277635 l 0.243454,1.175798 c 0.0072,0.03393 0.03376,0.058 0.0673,0.058 h 0.409199 0.409203 c 0.03366,0 0.06055,-0.02402 0.06731,-0.058 l 0.243452,-1.175798 c 0.23249,-0.06335 0.55136,-0.158884 0.755212,-0.27764 l 1.039064,0.63711 c 0.02797,0.01695 0.06383,0.01509 0.08696,-0.0083 l 0.549063,-0.555274 c 0.02387,-0.02401 0.02785,-0.06145 0.0093,-0.09013 l -0.552163,-0.848441 -0.06838,0.01011 -0.38745,-0.567705 c -0.395715,0.829537 -1.232584,1.358173 -2.151672,1.35917 -1.318213,0 -2.386837,-1.06862 -2.386837,-2.386833 9.62e-4,-0.906007 0.514418,-1.733472 1.326017,-2.136139 V 4.478963 c -0.151291,0.05041 -0.299948,0.107355 -0.414378,0.174045 l -1.039002,-0.637076 c -0.01401,-0.0085 -0.03017,-0.01267 -0.04562,-0.0113 z"
       class="ColorScheme-Text"
       id="path10-3" />
  </g>
  <metadata
     id="metadata18">
    <rdf:RDF>
      <cc:Work
         rdf:about="">
        <dc:format>image/svg+xml</dc:format>
        <dc:type
           rdf:resource="http://purl.org/dc/dcmitype/StillImage" />
      </cc:Work>
    </rdf:RDF>
  </metadata>
  <defs
     id="defs16" />
  <sodipodi:namedview
     pagecolor="#ffffff"
     bordercolor="#000000"
     borderopacity="1"
     objecttolerance="10"
     gridtolerance="10"
     guidetolerance="10"
     inkscape:pageopacity="0"
     inkscape:pageshadow="2"
     inkscape:window-width="1920"
     inkscape:window-height="1009"
     id="namedview14"
     showgrid="false"
     inkscape:zoom="9.8125003"
     inkscape:cx="34.242037"
     inkscape:cy="25.98726"
     inkscape:window-x="0"
     inkscape:window-y="0"
     inkscape:window-maximized="1"
     inkscape:current-layer="svg12"
     inkscape:document-rotation="0"
     inkscape:lockguides="false"
     inkscape:showpageshadow="false"
     inkscape:pagecheckerboard="0">
    <inkscape:grid
       type="xygrid"
       id="grid865"
       originx="0"
       originy="-1.5367432e-07" />
  </sodipodi:namedview>
  <g
     id="22-22-device-notifier">
    <rect
       style="opacity:0.00100002"
       width="22"
       height="22"
       x="32"
       y="9.999999"
       id="rect2" />
    <path
       d="m 43.000007,28.999999 c 2.75,0 4.999993,-1.970522 4.999993,-4.378951 v -7.073676 c 0,-0.555791 -0.519223,-0.547373 -1.153834,-0.547373 H 46 v -3.157892 c 0,-0.471587 0.03847,-0.842108 -0.500001,-0.842108 h -4.999993 c -0.538474,0 -0.420396,0.377289 -0.500006,0.842108 v 3.157892 H 39.153837 C 38.519233,16.999999 38,16.991581 38,17.547372 v 7.073676 c 0,2.408429 2.249996,4.378951 5.000007,4.378951 z M 41,14.01052 l 4,3.2e-4 v 2.989159 h -4 z m -2,3.989479 h 8 v 6.621049 c 0,1.852631 -1.884608,3.378951 -3.999993,3.378951 C 40.884618,27.999999 39,26.473679 39,24.621048 Z"
       id="path2-6"
       style="fill:#eff0f1;fill-opacity:1;stroke-width:0.179966"
       sodipodi:nodetypes="sssscsssscsssscccccccsssc" />
    <rect
       x="41.765289"
       y="14.768417"
       width="2.610527"
       height="1.0105262"
       id="rect4-7"
       style="fill:#eff0f1;fill-opacity:1;stroke-width:0.168418" />
    <rect
       x="42"
       y="25.999998"
       width="2"
       height="1"
       id="rect6-5"
       style="fill:#eff0f1;fill-opacity:1;stroke-width:0.182572" />
    <path
       style="color:#d3dae3;fill:#eff0f1;fill-opacity:1;fill-rule:evenodd;stroke-width:0.37454;image-rendering:optimizeQuality;shape-rendering:geometricPrecision;text-rendering:geometricPrecision"
       d="m 43.378243,18.999999 -1.129924,0.196705 v 3.888611 l 1.12408,-0.144792 -0.0062,-1.752722 1.326049,1.939912 1.302632,-0.18719 L 44.496124,20.932607 46,19.247879 44.68127,19.005118 43.366199,20.689837 Z m -2.376197,0.992994 c -0.01092,7.05e-4 -0.02114,0.0059 -0.02928,0.0139 l -0.387863,0.391931 c -0.01682,0.01693 -0.01964,0.04334 -0.0067,0.06363 l 0.468364,0.718783 c -0.08839,0.156676 -0.155114,0.328458 -0.198326,0.508195 L 40.03959,21.887595 C 40.01717,21.893295 40,21.913375 40,21.936565 v 0.255191 0.255199 c 0,0.02324 0.01718,0.04347 0.03959,0.04898 l 0.80865,0.198159 c 0.04321,0.179748 0.109965,0.351532 0.198325,0.508195 l -0.468362,0.718788 c -0.0131,0.02021 -0.0103,0.04663 0.0067,0.06359 l 0.387867,0.391935 c 0.01627,0.01653 0.04171,0.01784 0.06144,0.0062 l 0.733999,-0.449676 c 0.14399,0.08384 0.369259,0.151264 0.533492,0.195965 l 0.171974,0.829923 c 0.0051,0.02399 0.02391,0.04095 0.04757,0.04095 h 0.289063 0.289068 c 0.02381,0 0.04275,-0.01695 0.04758,-0.04095 l 0.171981,-0.829923 c 0.164229,-0.04477 0.389492,-0.112147 0.53349,-0.195969 l 0.734015,0.449699 c 0.01973,0.01202 0.04505,0.01067 0.06144,-0.0062 l 0.387876,-0.391933 c 0.01682,-0.01694 0.01965,-0.04334 0.0068,-0.06359 l -0.390054,-0.598864 -0.04831,0.0075 -0.273702,-0.400712 c -0.279536,0.585522 -0.870716,0.958653 -1.519976,0.959356 -0.931209,0 -1.686103,-0.754273 -1.686103,-1.684721 6.81e-4,-0.639496 0.363392,-1.223549 0.936723,-1.507767 v -0.36773 c -0.106876,0.03557 -0.211892,0.07577 -0.292727,0.122843 l -0.733966,-0.449685 c -0.01,-0.0064 -0.02126,-0.0083 -0.03225,-0.0083 z"
       class="ColorScheme-Text"
       id="path10-3-3" />
  </g>
</svg>
